<?xml version="1.0" standalone="no"?>
<!DOCTYPE svg PUBLIC "-//W3C//DTD SVG 20010904//EN"
 "http://www.w3.org/TR/2001/REC-SVG-20010904/DTD/svg10.dtd">
<svg version="1.0" xmlns="http://www.w3.org/2000/svg"
 width="601.000000pt" height="601.000000pt" viewBox="0 0 601.000000 601.000000"
 preserveAspectRatio="xMidYMid meet">
<metadata>
Created by potrace 1.14, written by Peter Selinger 2001-2017
</metadata>
<g transform="translate(0.000000,601.000000) scale(0.100000,-0.100000)"
fill="#000000" stroke="none">
<path d="M0 4535 c0 -1393 1 -1475 18 -1485 16 -11 16 -11 -1 -6 -16 5 -18 -1
-16 -57 3 -62 22 -103 42 -90 6 4 8 0 4 -11 -5 -11 -3 -16 5 -14 6 2 12 12 14
21 3 20 22 41 47 50 10 4 15 11 12 17 -3 5 -1 10 4 10 6 0 11 -5 11 -11 0 -8
6 -7 17 2 16 13 17 12 4 -3 -7 -10 -17 -16 -21 -13 -4 3 -13 -2 -20 -10 -7 -8
-9 -15 -4 -15 5 0 2 -5 -6 -10 -13 -9 -13 -10 0 -10 11 -1 11 -3 -3 -11 -17
-10 -17 -12 -3 -28 9 -10 14 -29 11 -49 -3 -24 0 -32 12 -32 8 0 13 6 10 12
-2 7 -1 22 3 33 4 11 3 29 -3 40 -17 31 -17 43 1 57 10 8 13 9 9 1 -4 -6 -3
-14 3 -18 5 -3 10 -1 10 4 0 6 5 11 11 11 5 0 7 -4 4 -10 -3 -5 0 -10 7 -10 7
0 2 -7 -10 -16 -23 -16 -29 -34 -12 -34 6 0 9 3 9 8 -3 19 2 22 16 8 19 -19
19 -24 -2 -29 -17 -4 -17 -5 0 -6 9 0 17 -5 17 -11 0 -5 -8 -7 -17 -4 -15 5
-16 4 -3 -5 18 -13 43 -14 35 -2 -3 5 3 12 12 14 14 4 13 5 -4 6 -20 1 -21 4
-12 27 7 20 6 31 -4 43 -21 24 -27 50 -15 57 6 4 8 3 4 -4 -3 -6 3 -13 14 -17
11 -4 18 -11 15 -16 -4 -5 -1 -9 5 -9 6 0 8 -5 4 -12 -6 -10 -4 -10 8 0 11 9
18 10 23 2 3 -5 1 -10 -4 -10 -22 0 -10 -30 13 -36 14 -3 26 -14 28 -25 3 -19
4 -19 16 2 8 11 9 18 4 15 -5 -3 -12 4 -15 15 -3 12 -10 18 -15 15 -5 -3 -12
6 -15 20 -3 18 -1 24 9 20 8 -3 14 -1 14 4 0 6 5 10 12 10 6 0 3 -9 -7 -20
-16 -17 -16 -20 -2 -20 8 0 18 6 21 13 4 6 4 2 2 -10 -3 -15 1 -23 10 -23 17
0 17 1 4 34 -10 28 6 49 21 25 4 -8 3 -16 -3 -20 -13 -8 -2 -29 15 -29 7 0 6
4 -3 10 -12 8 -12 10 -1 10 8 0 11 7 8 20 -6 24 2 26 18 3 11 -15 14 -15 36 0
19 14 20 17 6 17 -9 0 -17 -5 -17 -12 0 -6 -3 -8 -7 -5 -3 4 2 16 12 27 18 20
18 20 -13 14 -21 -4 -32 -3 -32 5 0 6 4 11 10 11 5 0 7 13 4 29 -7 32 11 50
29 32 9 -9 8 -11 -5 -6 -14 6 -18 2 -18 -15 0 -17 4 -21 18 -15 14 5 15 4 4
-6 -18 -19 -15 -28 8 -22 14 4 20 0 20 -11 0 -9 5 -16 10 -16 6 0 10 4 10 9 0
5 9 7 20 4 16 -4 18 -8 9 -20 -9 -11 -9 -17 0 -26 10 -9 11 -8 6 6 -10 25 10
21 23 -5 l11 -23 -2 25 c-2 19 3 26 20 28 15 2 20 9 17 20 -2 9 1 5 8 -9 7
-14 19 -24 25 -22 7 3 13 -1 13 -8 0 -8 7 -4 15 9 14 19 14 24 -2 48 -17 27
-17 27 5 15 26 -14 28 -5 5 22 -10 11 -13 17 -7 14 7 -4 15 0 18 9 5 13 15 15
41 11 20 -3 33 -2 31 2 -3 4 4 13 15 19 19 12 19 12 3 -13 -9 -14 -23 -25 -31
-25 -8 0 -11 -5 -8 -10 4 -6 12 -7 18 -3 8 5 8 2 0 -9 -13 -15 -8 -28 9 -28 5
0 6 5 3 10 -7 11 8 14 19 3 3 -4 -4 -13 -16 -20 -13 -7 -17 -12 -10 -13 7 0
10 -4 7 -10 -3 -5 1 -10 11 -10 13 0 14 3 5 14 -9 11 -8 15 6 21 10 5 21 8 25
7 4 -1 19 3 34 8 24 9 25 9 14 -5 -7 -8 -9 -15 -5 -15 4 0 2 -7 -5 -15 -11
-13 -10 -14 6 -8 16 5 17 4 8 -8 -9 -10 -9 -16 0 -24 20 -17 36 -16 37 2 0 10
3 13 5 6 3 -7 12 -9 20 -6 9 3 12 0 9 -9 -5 -11 1 -14 25 -10 16 2 30 9 30 14
0 5 -10 6 -21 3 -16 -5 -20 -3 -16 6 2 8 10 13 16 11 15 -3 14 10 -5 36 -14
20 -14 23 3 28 10 3 25 9 34 14 12 6 15 3 14 -11 -1 -10 -4 -21 -7 -24 -10
-10 17 -75 32 -75 13 0 13 -1 0 -10 -12 -8 -9 -9 12 -8 15 1 26 7 25 13 -1 5
4 9 12 7 8 -2 11 3 8 13 -4 9 -1 15 9 15 8 0 14 6 12 14 -2 8 2 15 7 15 13 0
6 -32 -8 -41 -12 -7 5 -13 26 -9 5 1 6 -3 2 -9 -3 -6 -10 -8 -15 -5 -4 3 -14
-3 -21 -13 -13 -15 -12 -16 4 -3 11 8 17 9 17 2 0 -6 -14 -17 -30 -26 -17 -9
-30 -21 -30 -28 0 -8 -4 -7 -10 3 -7 12 -9 10 -7 -7 1 -15 5 -19 13 -13 6 6
14 7 18 3 4 -4 4 1 1 12 -6 19 -6 19 8 2 12 -15 16 -15 20 -3 3 8 1 17 -6 20
-7 2 -5 5 5 5 9 1 19 -5 22 -11 3 -7 4 -4 1 8 -3 12 1 26 9 33 13 11 15 9 11
-8 -3 -14 4 -27 21 -38 19 -12 22 -18 12 -24 -7 -5 -8 -9 -3 -9 6 0 17 6 24
13 11 10 13 10 7 0 -11 -19 5 -15 20 5 10 12 16 14 21 6 8 -12 27 1 31 21 1 6
9 18 17 28 18 21 19 44 3 50 -8 4 -7 6 4 6 9 1 19 -5 22 -11 3 -7 3 -3 0 9 -4
18 -2 22 10 17 20 -8 20 -18 0 -38 -8 -9 -12 -16 -7 -16 4 0 0 -5 -11 -11 -15
-9 -16 -13 -5 -20 11 -7 10 -9 -3 -9 -10 0 -18 -5 -18 -11 0 -5 5 -7 10 -4 6
3 10 -3 10 -14 0 -14 6 -21 19 -21 14 0 18 5 14 20 -3 11 -10 17 -17 13 -8 -4
-8 -3 0 6 9 10 17 10 33 1 12 -6 26 -8 31 -5 18 11 22 -17 5 -33 -17 -16 -17
-16 -12 0 6 16 -20 35 -31 23 -3 -3 0 -5 6 -5 7 0 11 -3 11 -7 -4 -26 3 -32
34 -27 20 4 27 2 19 -3 -16 -12 -24 -71 -10 -79 7 -4 8 -2 4 4 -4 7 -1 12 6
12 7 0 28 -23 45 -50 19 -29 27 -47 18 -44 -9 4 -15 0 -15 -10 0 -10 6 -13 15
-10 8 4 15 1 15 -5 0 -6 -4 -11 -8 -11 -4 0 -9 -10 -10 -22 -15 -126 25 -205
104 -211 31 -3 32 -6 49 -142 6 -50 22 -117 41 -174 12 -36 12 -46 2 -53 -7
-4 -58 -8 -113 -7 -55 0 -138 -7 -185 -16 -47 -9 -102 -19 -123 -21 -47 -6
-128 -57 -183 -116 -54 -56 -65 -78 -74 -156 -10 -75 -50 -144 -90 -152 -53
-11 -110 -50 -130 -90 -17 -32 -20 -59 -20 -153 0 -161 -3 -172 -58 -199 -68
-35 -112 -94 -119 -163 -7 -63 -21 -75 -89 -75 -19 0 -34 -4 -34 -9 0 -16 18
-22 23 -9 2 7 8 10 12 6 8 -8 -14 -32 -34 -36 -7 -1 -11 3 -9 10 3 7 0 18 -7
24 -12 12 -69 13 -81 1 -4 -4 -17 -7 -30 -7 -33 0 -54 -10 -54 -26 0 -8 -5
-14 -11 -14 -5 0 -7 4 -4 10 7 11 -9 13 -42 4 -13 -4 -23 -13 -23 -20 0 -8 -9
-13 -21 -11 -12 1 -24 -4 -27 -12 -3 -10 0 -12 11 -8 15 6 18 -15 4 -29 -12
-13 -35 22 -25 39 7 13 5 17 -10 17 -10 0 -22 -3 -26 -8 -4 -4 -15 -8 -24 -8
-51 -4 -83 -35 -49 -47 9 -3 9 -9 -1 -26 -13 -22 -16 -54 -6 -63 3 -4 16 -1
29 6 29 15 95 9 95 -10 0 -8 -6 -11 -16 -7 -10 4 -17 -1 -21 -16 -3 -11 -9
-18 -14 -15 -5 3 -7 10 -4 15 7 10 -24 1 -42 -13 -7 -5 -14 -5 -17 1 -3 5 -1
12 4 14 6 3 5 4 -2 3 -18 -4 -18 -144 -1 -150 7 -3 15 -1 18 4 4 6 12 10 18
10 7 0 6 -4 -3 -10 -11 -7 -11 -10 -2 -10 7 0 10 -5 7 -10 -4 -6 -10 -8 -14
-6 -17 11 -35 -16 -38 -54 -3 -39 -2 -41 25 -38 20 2 26 -1 24 -12 -16 -68
-15 -77 9 -76 13 1 34 -8 46 -21 18 -19 23 -20 33 -8 6 8 9 19 6 24 -4 5 -2
12 3 16 6 3 8 12 5 19 -3 8 0 17 5 21 12 7 6 25 -9 25 -4 0 -7 -14 -6 -31 1
-16 -1 -32 -6 -35 -5 -3 -6 -10 -2 -16 3 -5 -8 -3 -24 6 -17 9 -38 16 -47 16
-8 0 -15 7 -15 16 0 14 2 15 17 3 15 -12 16 -12 8 1 -7 12 -6 13 6 3 11 -9 18
-8 32 1 20 16 23 30 3 23 -9 -4 -13 2 -12 16 1 15 -4 21 -16 19 -12 -2 -15 3
-11 17 3 13 11 17 24 14 10 -3 17 -8 14 -12 -2 -4 21 -6 51 -5 29 1 54 -2 54
-7 0 -5 -7 -9 -16 -9 -8 0 -12 -4 -9 -10 3 -5 1 -10 -5 -10 -6 0 -8 -5 -5 -10
4 -7 11 -7 18 -2 15 12 48 12 41 0 -3 -4 0 -8 6 -8 6 0 20 -9 32 -20 l22 -20
-31 0 c-17 0 -36 7 -44 16 -7 8 -21 13 -31 11 -10 -3 -16 -1 -12 4 3 5 1 9 -5
9 -18 0 -23 -20 -7 -26 9 -3 13 -10 10 -15 -3 -5 0 -9 7 -9 6 0 26 -16 44 -35
30 -32 34 -33 47 -17 12 16 11 16 -6 2 -18 -14 -19 -13 -14 8 4 13 2 22 -5 22
-7 0 -5 5 3 10 21 14 30 12 30 -5 0 -13 3 -13 20 -3 19 12 19 13 0 33 -26 28
-25 34 2 28 22 -6 21 -4 -5 20 -26 25 -38 77 -18 77 18 0 41 -12 41 -22 0 -5
-4 -6 -10 -3 -5 3 -7 0 -5 -7 7 -18 65 -17 65 0 0 7 7 15 15 18 8 4 13 10 10
14 -3 4 5 10 18 14 31 8 37 7 37 -5 0 -5 -4 -8 -9 -5 -5 3 -15 -2 -22 -11 -12
-14 -12 -16 0 -8 11 6 13 4 8 -8 -3 -9 -1 -19 5 -23 6 -4 8 -3 5 3 -4 6 4 15
18 21 18 8 25 8 28 -1 2 -7 4 3 5 20 0 18 -4 35 -9 38 -5 4 -9 -2 -9 -11 0
-24 -10 -12 -16 20 -4 23 -2 25 18 17 13 -5 23 -13 23 -19 0 -19 25 -38 33
-26 4 6 15 11 26 11 17 0 17 -1 2 -12 -15 -12 -15 -13 1 -19 10 -4 19 -2 21 3
7 20 32 11 42 -14 11 -29 4 -55 -15 -55 -22 0 -47 -31 -42 -51 3 -11 1 -19 -4
-19 -5 0 -9 5 -9 11 0 5 -4 8 -8 5 -5 -3 -20 1 -35 9 -30 15 -36 3 -14 -27 9
-11 18 -14 28 -7 20 12 29 11 29 -3 0 -14 41 -21 77 -13 16 4 21 10 16 23 -6
15 -5 15 11 2 17 -13 17 -15 -3 -31 -21 -17 -21 -18 -2 -16 11 0 18 4 15 8 -7
12 12 20 30 13 9 -3 13 -11 9 -17 -3 -5 -1 -7 5 -3 6 3 14 2 17 -4 5 -8 11 -8
20 0 9 8 14 5 20 -12 6 -21 8 -21 12 -4 6 21 -15 38 -37 30 -10 -3 -12 -2 -5
5 10 10 30 14 54 12 9 -1 11 -9 7 -26 -5 -20 -2 -27 16 -34 18 -7 25 -5 32 10
5 10 13 19 19 19 5 0 7 6 4 13 -3 7 4 12 18 12 19 0 21 -3 14 -22 -5 -13 -6
-23 -2 -23 4 0 -1 -6 -12 -13 -11 -9 -15 -19 -11 -28 4 -8 0 -5 -8 5 -16 20
-16 20 -16 0 0 -13 -3 -15 -8 -6 -5 8 -16 10 -27 6 -12 -5 -16 -4 -11 4 3 6 2
13 -4 17 -5 3 -10 2 -10 -4 0 -6 -6 -8 -14 -5 -8 3 -16 -3 -19 -15 -3 -15 -10
-19 -21 -15 -9 4 -16 3 -15 -2 4 -23 -3 -34 -20 -34 -33 0 -49 10 -44 30 6 21
-12 36 -23 19 -4 -8 -3 -9 4 -5 7 4 12 3 12 -2 0 -5 -11 -14 -25 -20 -21 -10
-27 -9 -31 3 -9 24 -40 18 -52 -10 -10 -21 -15 -24 -31 -16 -10 6 -21 7 -25 3
-4 -3 -4 2 0 13 5 11 9 14 12 7 5 -15 29 -16 38 0 4 6 3 8 -3 5 -14 -9 -24 16
-13 33 5 9 9 9 13 1 3 -7 4 -7 3 1 -2 7 -10 12 -18 10 -9 -1 -18 4 -22 13 -9
24 -28 18 -21 -6 5 -14 2 -25 -6 -30 -12 -8 -12 -10 0 -18 10 -7 11 -13 2 -30
-7 -11 -14 -21 -17 -21 -3 0 -2 5 1 10 3 6 2 10 -4 10 -14 0 -26 -22 -24 -45
2 -11 0 -14 -3 -7 -5 10 -9 10 -20 1 -18 -15 -8 -30 14 -22 13 4 13 2 -3 -10
-19 -15 -15 -16 52 -16 67 0 72 2 77 24 4 16 11 22 21 19 8 -4 15 -1 15 5 0 6
7 11 16 11 11 0 14 -6 10 -17 -5 -16 -4 -16 8 1 9 10 20 15 27 10 7 -4 10 -3
6 3 -4 6 0 16 7 22 10 8 16 9 21 1 3 -5 1 -10 -6 -10 -7 0 -9 -3 -5 -7 4 -5
14 0 21 11 8 10 18 15 24 12 5 -4 13 -2 16 4 7 11 75 11 75 0 0 -3 -5 -11 -10
-16 -7 -7 -4 -10 12 -8 13 1 26 3 31 3 4 1 7 10 7 21 0 11 4 20 9 20 11 0 2
-38 -10 -46 -5 -3 1 -14 13 -24 l23 -19 -33 2 c-20 1 -30 6 -28 14 3 8 -4 9
-25 3 -27 -8 -29 -7 -23 12 4 15 2 19 -7 16 -8 -3 -14 -17 -13 -31 1 -15 -2
-24 -7 -22 -4 3 -10 1 -14 -5 -3 -5 3 -10 14 -10 10 0 22 6 25 13 5 9 7 9 12
0 4 -8 107 -12 394 -13 l389 -1 4 23 4 23 2 -23 1 -23 522 1 521 1 30 25 c16
14 32 22 35 20 7 -8 -19 -37 -28 -31 -5 3 -12 1 -15 -5 -5 -8 16 -10 65 -9 66
2 73 4 97 33 23 27 24 28 9 4 -9 -15 -16 -30 -16 -33 0 -10 289 -5 295 5 3 6
11 10 16 10 6 0 7 -5 4 -10 -9 -15 485 -12 502 2 9 7 22 7 40 0 18 -7 144 -11
341 -11 266 0 313 2 308 14 -3 8 -1 17 4 20 6 4 10 -3 10 -14 0 -20 2 -20 845
-21 l845 0 0 280 c0 154 -3 280 -7 280 -5 0 -23 14 -42 30 -18 17 -37 30 -40
30 -3 0 -17 10 -31 23 -14 12 -56 38 -95 57 -38 19 -83 44 -100 55 -41 28
-191 86 -234 91 -20 3 -42 5 -48 6 -7 1 -13 5 -13 8 0 4 -11 8 -25 9 -48 3
-55 4 -55 12 0 5 -19 8 -42 7 -24 0 -65 3 -93 6 -113 15 -214 22 -272 20 -68
-3 -72 1 -53 51 10 26 -7 105 -22 105 -4 0 -5 6 -3 13 7 17 -99 117 -124 117
-33 0 -53 40 -40 78 6 18 15 32 19 32 5 0 7 14 5 30 -3 21 0 30 10 30 17 0 20
16 6 24 -5 4 -8 17 -6 31 1 14 -1 25 -6 25 -5 0 -13 8 -18 18 -7 14 -6 19 4
19 8 0 11 -5 8 -11 -4 -6 1 -5 10 3 18 14 22 22 10 19 -5 0 -16 2 -25 6 -22
10 -24 30 -3 22 22 -8 18 1 -14 33 -22 21 -26 32 -18 40 8 8 8 11 -1 12 -29 3
-32 4 -32 12 0 4 0 10 0 14 0 4 5 2 12 -5 17 -17 29 -15 22 3 -4 8 0 22 7 31
11 14 10 16 -6 14 -32 -4 -45 -1 -45 10 0 5 8 7 18 4 14 -5 15 -4 2 5 -19 13
-47 14 -55 1 -3 -6 1 -7 9 -4 9 3 16 1 16 -6 0 -6 -5 -8 -11 -5 -6 4 -13 -3
-16 -14 -6 -22 -24 -24 -31 -3 -2 7 4 12 13 12 9 0 13 5 10 11 -4 6 2 17 14
25 12 9 18 20 15 26 -4 7 -2 8 5 4 6 -4 9 -11 6 -16 -3 -4 4 -10 14 -13 14 -3
18 -1 14 9 -7 19 2 18 23 -3 16 -16 16 -16 9 6 -5 16 -4 21 4 17 7 -5 9 -1 5
8 -3 9 -11 13 -16 10 -6 -4 -8 2 -3 15 4 12 2 21 -4 21 -6 0 -11 8 -10 18 0
10 3 12 6 5 2 -7 9 -13 14 -13 6 0 7 6 3 12 -4 7 2 5 14 -6 21 -18 21 -18 9 7
-6 14 -15 23 -19 21 -12 -7 -20 15 -13 37 5 16 13 20 31 16 14 -2 21 0 17 6
-4 6 0 8 10 4 10 -4 18 1 22 14 5 15 10 17 25 9 13 -7 21 -6 30 5 7 8 17 12
23 8 7 -4 8 0 4 11 -5 14 -3 17 8 12 8 -3 15 -1 15 5 0 5 -7 12 -15 15 -8 4
-12 11 -8 17 4 7 0 8 -12 3 -12 -4 -24 0 -37 14 -15 16 -16 20 -4 20 8 0 17
-8 19 -17 4 -15 5 -16 6 -2 1 11 14 19 36 23 20 4 33 11 30 17 -4 5 -1 9 4 9
6 0 11 9 11 20 0 11 6 20 13 20 6 0 23 3 37 6 21 5 22 4 10 -6 -13 -10 -12
-11 3 -6 10 3 24 6 30 7 7 0 3 4 -8 9 -16 7 -17 9 -3 9 9 1 20 6 24 12 4 7 0
9 -14 5 -11 -4 -23 -2 -27 4 -3 5 1 10 9 10 9 0 16 6 16 13 0 20 -18 42 -27
33 -4 -5 -2 -11 5 -13 22 -8 12 -20 -18 -21 -16 0 -30 4 -30 9 0 6 -5 7 -12 3
-7 -4 -8 -3 -4 4 4 6 14 8 22 5 11 -4 15 0 12 13 -2 13 3 19 17 19 11 0 20 5
20 12 0 7 8 21 17 32 12 14 13 21 5 25 -9 3 -9 5 0 5 7 1 10 7 7 15 -3 8 -1
17 5 20 6 4 8 14 5 24 -5 14 -4 14 4 2 6 -8 8 -19 4 -25 -10 -16 -2 -48 16
-61 11 -8 12 -13 4 -18 -7 -4 -12 -2 -12 3 0 6 -8 11 -17 11 -15 0 -15 -1 2
-13 13 -10 15 -16 6 -21 -6 -4 -9 -12 -6 -17 10 -15 23 -10 21 8 0 9 10 23 24
30 14 7 19 13 12 13 -7 0 -19 6 -26 12 -11 11 -10 17 10 35 20 18 21 23 9 33
-12 10 -15 9 -15 -3 0 -9 -4 -18 -10 -22 -5 -3 -5 6 1 24 8 22 6 38 -6 66 -8
21 -12 41 -9 44 4 3 9 0 11 -6 3 -7 13 -13 23 -13 10 0 21 -8 23 -18 4 -13 5
-11 6 6 1 25 11 28 29 10 7 -7 12 -9 12 -6 0 4 -7 14 -16 23 -14 13 -19 14
-26 3 -7 -9 -8 -6 -5 9 3 13 1 23 -4 23 -5 0 -9 -5 -9 -11 0 -5 -5 -7 -11 -3
-16 9 11 25 32 18 19 -5 34 22 17 32 -7 4 -8 3 -4 -4 5 -8 -1 -12 -15 -12 -21
0 -22 1 -4 20 10 11 22 17 26 14 5 -3 9 0 9 5 0 14 -27 14 -35 1 -3 -5 -11
-10 -17 -10 -6 0 -5 7 3 16 12 15 11 16 -10 9 -17 -5 -21 -4 -16 5 4 7 19 9
38 5 35 -8 27 9 -8 18 -12 3 -5 5 16 6 29 1 38 6 42 23 6 22 -9 41 -25 32 -4
-3 -8 1 -8 8 -1 8 -6 6 -15 -6 -8 -11 -15 -15 -15 -9 0 7 5 15 10 18 6 4 8 10
5 15 -3 4 3 7 12 5 10 -2 22 -4 26 -4 5 -1 5 -5 2 -11 -3 -5 -1 -10 4 -10 6 0
11 5 11 11 0 5 5 7 10 4 6 -3 10 -11 10 -16 0 -6 -6 -7 -13 -3 -8 5 -8 2 2 -9
15 -18 26 -23 16 -7 -3 6 1 13 9 16 9 3 14 10 11 14 -3 5 -1 11 5 15 5 3 10
15 10 26 0 11 5 17 10 14 6 -3 10 -1 10 4 0 6 -4 11 -10 11 -5 0 -9 3 -9 8 3
18 -2 26 -10 14 -7 -11 -9 -11 -13 0 -3 7 1 19 8 26 12 10 14 10 14 -3 0 -8 5
-15 10 -15 6 0 10 -7 10 -15 0 -20 18 -19 22 2 3 14 4 14 16 1 10 -13 8 -21
-17 -46 -15 -17 -26 -34 -23 -37 3 -3 0 -5 -6 -5 -7 0 -12 -5 -12 -11 0 -6 7
-8 16 -5 12 5 14 1 9 -17 -7 -22 -7 -22 10 -2 9 11 14 14 10 8 -9 -18 10 -16
25 2 12 14 15 14 30 0 12 -11 20 -13 25 -5 4 6 1 9 -7 8 -7 -2 -12 2 -11 8 1
8 -11 10 -35 8 -25 -2 -32 0 -22 6 8 5 17 7 21 4 9 -5 42 46 35 54 -3 3 -6 0
-6 -6 0 -7 -7 -9 -17 -5 -12 5 -15 2 -11 -8 4 -10 -1 -15 -16 -16 -11 0 -15 1
-8 4 6 3 12 11 12 19 0 8 7 14 16 14 8 0 12 5 9 10 -3 6 1 10 9 10 8 0 17 4
20 8 3 5 -8 6 -25 4 -17 -3 -29 0 -29 7 0 6 4 11 8 11 4 0 8 9 8 20 0 11 -4
20 -9 20 -5 0 -1 7 8 16 9 9 14 23 11 31 -3 7 1 16 10 20 13 5 13 8 2 15 -9 7
-7 8 7 3 11 -4 28 -7 38 -7 9 0 15 -2 13 -6 -3 -4 6 -9 20 -10 36 -3 29 14 -8
23 -18 4 -27 9 -20 12 6 2 12 9 12 14 0 4 -6 6 -14 3 -8 -3 -17 -1 -21 5 -3 6
-14 11 -23 11 -14 0 -13 -2 2 -13 18 -13 18 -14 0 -14 -10 0 -25 6 -32 14 -11
11 -11 14 2 19 9 3 14 10 11 14 -3 5 -1 11 5 15 6 3 13 0 16 -9 8 -21 32 -28
54 -16 20 11 17 37 -4 53 -7 5 -6 10 4 17 10 6 11 10 3 10 -7 0 -12 5 -10 12
1 6 -6 14 -15 16 -10 2 -18 -1 -18 -7 0 -6 5 -11 12 -11 6 0 3 -7 -8 -15 -26
-19 -43 -19 -18 1 18 14 18 15 -6 10 -14 -3 -19 -3 -12 0 6 3 10 9 7 14 -3 4
6 11 20 14 17 4 23 11 19 24 -5 14 -4 15 5 2 7 -10 11 -11 11 -2 0 10 4 10 20
0 16 -10 22 -10 32 0 11 11 10 12 -4 7 -13 -5 -15 -2 -11 14 3 11 12 22 20 26
13 4 14 3 4 -9 -13 -15 1 -32 18 -22 5 4 12 0 14 -6 3 -7 6 -1 6 14 1 32 36
57 54 39 6 -6 20 -11 32 -11 15 0 17 -2 6 -9 -10 -7 -7 -9 11 -8 13 1 25 7 25
14 0 6 -7 9 -15 5 -11 -4 -13 -1 -8 7 5 7 17 10 29 7 15 -3 17 -2 9 6 -9 9
-18 8 -37 0 -31 -14 -46 -16 -26 -3 21 13 22 51 1 51 -9 0 -22 -6 -29 -12 -10
-11 -11 -9 -5 7 7 18 6 19 -11 5 -16 -13 -18 -13 -13 0 3 8 -1 20 -9 25 -9 7
1 10 36 10 41 0 48 2 46 17 -4 21 8 30 29 22 15 -6 15 -8 -1 -20 -15 -10 -16
-15 -5 -26 11 -11 12 -10 7 5 -4 10 -2 17 4 17 6 0 11 -9 11 -19 0 -10 6 -21
14 -24 12 -5 12 -2 0 21 -16 31 -11 40 13 22 10 -8 5 -1 -10 15 -23 21 -26 29
-15 36 10 7 9 9 -6 9 -14 0 -17 6 -14 24 4 19 1 24 -14 21 -17 -4 -17 -2 -3
26 18 34 29 39 20 8 -7 -20 -6 -21 12 -2 18 17 28 47 12 38 -4 -3 -17 3 -29
13 -15 12 -18 19 -9 19 8 0 23 4 33 9 16 6 18 4 12 -12 -6 -15 -5 -17 5 -6 18
17 32 15 25 -3 -5 -14 9 -20 42 -16 6 1 12 -6 13 -16 0 -11 3 -13 6 -5 3 7 -1
19 -8 28 -10 12 -14 12 -20 2 -7 -10 -9 -9 -9 3 0 8 6 21 13 28 10 11 9 14 -1
18 -10 4 -6 11 13 23 23 15 24 18 9 24 -16 6 -16 7 2 20 10 8 24 12 31 9 7 -3
13 0 13 7 0 6 -5 8 -12 4 -8 -5 -9 -2 -5 10 4 10 2 16 -6 15 -6 -1 -21 -1 -32
0 -15 1 -17 3 -6 10 9 6 10 11 2 15 -6 4 -11 11 -11 17 0 5 9 4 19 -3 11 -7
17 -16 15 -20 -3 -4 3 -8 13 -8 13 0 7 9 -22 34 -38 33 -39 35 -22 52 10 11
17 13 17 6 0 -7 -5 -12 -11 -12 -5 0 -7 -5 -4 -10 5 -8 11 -7 21 1 13 10 18 6
15 -13 0 -5 4 -8 10 -8 5 0 7 -5 3 -11 -7 -12 13 -29 35 -29 12 0 11 3 -2 13
-15 11 -14 12 13 14 17 1 28 -2 25 -7 -3 -6 1 -7 9 -4 9 3 16 14 17 23 0 9 3
11 6 4 3 -10 7 -10 18 0 7 7 10 16 7 21 -3 5 -1 6 5 3 6 -4 9 -18 8 -32 -4
-31 11 -33 21 -2 4 12 12 25 18 29 8 5 7 8 -2 8 -7 0 -11 4 -8 9 3 4 -3 16
-14 26 -19 17 -26 12 -21 -17 0 -5 -5 -7 -12 -5 -6 1 -11 -4 -10 -10 2 -7 0
-12 -5 -12 -19 3 -33 -2 -27 -11 3 -5 1 -10 -5 -10 -7 0 -9 7 -6 16 3 9 6 18
6 20 0 3 5 2 10 -1 6 -3 10 -1 10 4 0 17 -18 13 -28 -6 -6 -10 -16 -14 -26
-10 -10 4 -16 1 -16 -8 0 -8 -5 -15 -11 -15 -6 0 -8 7 -5 16 3 8 2 13 -3 10
-5 -3 -12 1 -15 10 -10 25 -7 27 11 8 10 -10 19 -12 21 -6 2 6 9 9 16 6 15 -6
16 37 1 48 -6 5 -4 8 5 8 13 0 13 1 0 11 -12 8 -12 10 5 8 38 -3 55 1 55 12 0
7 -9 9 -22 6 -22 -6 -22 -6 -4 8 22 16 37 19 35 8 -1 -5 -1 -15 0 -23 1 -13 3
-13 10 -1 5 8 7 21 4 30 -4 14 -3 14 5 1 6 -8 8 -18 6 -22 -10 -16 -12 -48 -3
-48 5 0 9 7 9 16 0 11 5 14 16 10 9 -3 20 -6 25 -6 6 0 7 -6 3 -12 -6 -10 -4
-10 8 0 15 12 17 80 2 103 -3 5 2 9 11 9 9 0 14 3 11 8 -2 4 2 15 9 25 11 15
14 15 18 3 3 -8 1 -17 -6 -20 -7 -2 2 -5 18 -5 23 -1 26 2 15 9 -13 8 -13 10
2 10 9 0 19 -8 22 -17 3 -10 4 -6 2 10 -2 15 1 27 5 27 5 0 9 5 9 11 0 5 -5 7
-10 4 -6 -4 -17 -1 -25 5 -12 10 -15 9 -15 -3 0 -8 6 -18 13 -20 9 -4 9 -6 -1
-6 -7 -1 -15 6 -18 14 -5 11 -10 12 -26 4 -11 -6 -22 -8 -26 -5 -3 3 0 6 7 6
9 0 11 8 7 25 -5 19 -3 23 9 19 8 -3 12 -10 9 -15 -8 -14 8 -11 25 5 11 10 21
12 31 6 10 -7 11 -10 3 -10 -7 0 -13 -5 -13 -11 0 -8 5 -8 15 1 11 9 12 16 5
25 -8 9 -8 15 0 20 14 9 13 28 -2 19 -7 -4 -10 -4 -6 1 4 4 2 15 -5 24 -11 14
-10 14 6 2 14 -11 17 -11 17 1 0 9 -8 26 -19 39 -10 13 -16 30 -14 37 3 6 -3
12 -12 12 -15 0 -15 2 -1 15 18 19 27 19 20 1 -3 -7 2 -16 10 -19 13 -5 15
101 16 929 l0 934 -3005 0 -3005 0 0 -1475z m3155 975 c20 -13 24 -20 14 -20
-18 0 -71 39 -54 40 6 0 24 -9 40 -20z m-425 -49 c0 -6 -4 -13 -10 -16 -5 -3
-10 -1 -10 6 0 8 -5 7 -17 -2 -16 -13 -17 -12 -4 4 14 18 41 23 41 8z m55 -1
c3 -6 -1 -7 -9 -4 -18 7 -21 14 -7 14 6 0 13 -4 16 -10z m7 -32 c14 3 19 1 14
-6 -11 -19 -46 -14 -45 6 0 9 3 12 5 6 3 -7 14 -9 26 -6z m669 -35 c13 -16 12
-17 -3 -4 -10 7 -18 15 -18 17 0 8 8 3 21 -13z m-137 -159 c3 -8 2 -12 -4 -9
-6 3 -10 10 -10 16 0 14 7 11 14 -7z m266 -408 c0 4 6 1 14 -5 10 -8 16 -9 21
-1 8 12 45 13 45 1 0 -11 40 -9 59 3 7 4 15 5 18 2 4 -3 1 -6 -5 -6 -7 0 -12
-7 -12 -15 0 -8 5 -15 11 -15 5 0 7 5 4 10 -7 11 6 13 29 4 9 -3 16 -15 16
-26 0 -10 4 -17 9 -14 5 3 14 -1 21 -9 6 -7 17 -12 25 -9 7 3 16 -3 20 -15 4
-13 11 -18 22 -14 11 4 14 2 9 -5 -5 -8 -2 -10 8 -6 11 4 16 0 16 -15 0 -14
13 -27 40 -41 22 -11 41 -25 41 -30 1 -6 2 -15 3 -20 0 -6 6 -14 12 -18 6 -4
14 -17 18 -28 8 -26 41 -66 48 -58 3 2 4 -7 3 -21 -2 -14 1 -27 6 -31 5 -3 5
-13 -1 -24 -7 -13 -7 -21 0 -25 5 -3 10 -21 10 -40 0 -22 6 -38 18 -45 16 -9
15 -11 -6 -29 -12 -11 -18 -22 -13 -26 6 -3 8 -12 5 -20 -3 -8 4 -28 16 -45
12 -17 18 -30 13 -29 -20 3 -27 -2 -13 -11 10 -6 11 -10 3 -10 -7 0 -13 -7
-13 -15 0 -8 7 -15 15 -15 9 0 15 -9 15 -23 0 -13 3 -27 7 -31 4 -3 8 -13 9
-22 2 -11 -1 -12 -11 -4 -9 8 -17 7 -28 -5 -9 -8 -18 -15 -22 -15 -29 0 -38
-55 -14 -86 5 -6 6 -14 2 -17 -3 -4 -1 -7 6 -7 8 0 11 -6 7 -16 -4 -10 -2 -13
6 -8 7 5 9 0 6 -14 -4 -12 -2 -22 2 -22 5 0 7 -8 5 -17 -1 -10 2 -23 7 -29 5
-7 8 -16 7 -20 -4 -24 2 -36 17 -30 8 3 13 2 9 -3 -3 -5 -1 -11 4 -13 6 -1 13
-18 16 -37 3 -19 8 -38 10 -42 3 -4 -1 -9 -9 -12 -17 -7 -10 -47 9 -47 8 0 12
-16 11 -45 -1 -27 -5 -44 -11 -41 -6 2 -11 -5 -11 -15 0 -11 3 -19 6 -19 3 0
6 -10 6 -23 1 -12 4 -29 5 -37 3 -9 -2 -14 -10 -12 -11 2 -12 0 -3 -11 10 -11
9 -17 -5 -28 -9 -8 -15 -9 -12 -4 3 6 -5 20 -18 32 -27 26 -31 19 -6 -9 14
-16 15 -21 4 -28 -10 -6 -8 -9 8 -15 13 -4 28 -1 37 6 13 10 13 8 5 -13 -5
-14 -7 -29 -4 -32 4 -3 1 -6 -7 -6 -8 0 -9 -4 -3 -12 5 -7 8 -29 7 -48 -2 -19
-4 -72 -5 -117 -1 -46 -5 -80 -10 -77 -5 3 -4 -6 3 -20 16 -36 29 -32 28 7 -1
17 3 60 8 94 6 49 15 68 39 93 17 18 36 29 43 25 6 -4 18 -1 27 7 12 9 15 9 9
1 -11 -19 8 -15 31 6 46 43 53 -9 19 -154 -8 -33 -21 -90 -30 -127 -9 -37 -20
-76 -25 -85 -11 -21 -52 -127 -75 -196 -18 -54 -21 -123 -6 -132 6 -3 10 -31
10 -62 0 -59 -23 -113 -50 -113 -23 0 -71 35 -63 45 5 5 0 3 -9 -4 -10 -7 -18
-16 -18 -19 0 -3 3 -2 7 1 7 8 32 -23 33 -40 0 -7 -7 -10 -15 -7 -11 5 -13 2
-9 -11 4 -10 1 -21 -6 -25 -11 -7 -12 -14 -2 -36 11 -24 10 -29 -9 -47 -17
-16 -18 -21 -7 -28 10 -7 8 -9 -7 -9 -16 0 -17 -2 -5 -9 8 -6 18 -7 23 -4 5 3
3 -4 -4 -15 -7 -12 -17 -18 -23 -15 -5 3 -6 1 -2 -6 8 -12 -14 -71 -26 -71 -4
0 -13 -20 -19 -45 -6 -25 -14 -44 -16 -41 -2 2 -16 -7 -30 -20 -21 -19 -29
-22 -36 -12 -6 9 -7 7 -3 -5 8 -25 -4 -44 -15 -26 -7 11 -9 10 -9 -3 0 -10 -8
-18 -17 -19 -10 -1 -31 -2 -48 -3 -19 -1 -29 -7 -27 -15 1 -7 -2 -10 -8 -6
-16 10 -38 -17 -32 -40 5 -17 3 -18 -10 -8 -12 10 -19 8 -36 -12 -12 -14 -17
-25 -12 -25 6 0 10 -5 10 -11 0 -14 -26 -39 -40 -39 -6 0 -10 -8 -8 -17 2 -12
-3 -18 -14 -17 -10 1 -18 -4 -18 -12 0 -8 -4 -14 -10 -14 -5 0 -10 -5 -10 -11
0 -5 5 -7 10 -4 18 11 11 -4 -12 -26 -13 -12 -16 -18 -8 -14 10 6 8 1 -4 -13
-11 -12 -16 -22 -13 -22 4 0 -2 -9 -14 -21 -15 -15 -24 -18 -34 -9 -9 8 -14 7
-18 -5 -4 -8 -1 -14 6 -12 7 1 11 -4 10 -11 -2 -6 3 -12 10 -12 6 -1 0 -7 -15
-15 -15 -8 -29 -24 -33 -35 -3 -11 -13 -20 -21 -20 -8 0 -13 -4 -10 -9 13 -21
-7 -43 -35 -39 -29 4 -34 -3 -30 -39 1 -7 -3 -13 -10 -13 -6 0 -18 -8 -26 -18
-8 -9 -11 -11 -7 -3 9 17 -11 7 -43 -22 -12 -11 -37 -21 -55 -22 -54 -4 -105
-33 -90 -51 4 -5 0 -3 -10 4 -12 10 -18 10 -24 1 -4 -8 -3 -9 4 -5 7 4 12 2
12 -3 0 -6 -7 -11 -15 -11 -8 0 -15 5 -15 11 0 5 -4 7 -10 4 -5 -3 -10 1 -10
9 0 22 -26 20 -43 -4 -10 -14 -27 -20 -70 -22 -54 -3 -62 0 -58 27 1 6 -6 1
-14 -9 -13 -18 -20 -15 -16 6 2 11 -27 10 -33 -1 -4 -5 0 -11 6 -14 7 -3 3 -4
-9 -4 -12 1 -19 5 -17 9 8 12 -11 9 -24 -4 -9 -9 -12 -9 -12 1 0 7 -5 9 -11 5
-7 -4 -25 -7 -40 -6 -16 0 -29 -4 -29 -11 0 -8 -3 -8 -12 1 -7 7 -20 12 -31
12 -17 0 -17 1 -3 16 9 8 16 18 16 22 0 3 -5 1 -12 -6 -8 -8 -22 -5 -55 15
-24 14 -42 21 -41 17 2 -5 -1 -11 -6 -14 -5 -3 -11 6 -13 19 -2 17 1 22 12 18
8 -4 17 -2 20 3 10 17 -47 11 -59 -6 -10 -13 -12 -9 -11 20 1 32 0 34 -19 24
-12 -6 -18 -8 -15 -4 9 10 -40 58 -52 51 -5 -3 -6 1 -3 9 3 9 11 13 17 9 6 -3
7 -1 3 6 -4 6 -11 9 -15 6 -5 -2 -16 4 -26 15 -14 16 -15 20 -4 21 8 0 3 5
-11 10 -13 6 -20 13 -15 17 15 11 12 42 -5 52 -12 8 -10 10 10 11 l25 1 -25 8
c-14 4 -19 8 -12 9 6 1 12 9 12 19 0 14 -2 15 -10 2 -6 -9 -10 -10 -10 -3 0 6
4 14 9 17 11 7 33 -18 24 -27 -3 -4 0 -7 8 -7 8 0 20 5 27 12 9 9 17 7 33 -8
19 -16 21 -16 16 -2 -3 9 0 19 9 22 8 3 14 0 14 -6 0 -6 6 -5 17 3 15 12 16
12 10 -3 -8 -22 2 -23 31 -2 12 8 22 12 22 8 0 -3 6 -1 14 5 8 7 26 10 41 7
22 -4 25 -3 14 10 -10 12 -9 13 5 8 9 -3 16 -10 16 -14 0 -14 59 -8 64 7 7 16
32 17 42 1 4 -6 3 -8 -2 -5 -6 3 -16 2 -24 -4 -12 -7 -11 -9 5 -9 12 0 26 5
33 12 9 9 15 9 24 0 15 -15 32 -16 23 -2 -3 6 -1 10 5 10 6 0 8 5 4 12 -5 7
-3 8 7 3 18 -12 49 -14 43 -3 -6 9 23 12 69 9 15 -1 27 3 27 9 0 6 4 9 9 6 5
-4 11 -2 13 4 1 5 15 11 30 12 15 1 25 5 22 9 -2 4 7 10 21 13 14 4 25 11 25
17 0 6 5 7 10 4 6 -3 10 -1 10 5 0 6 5 8 12 4 7 -4 8 -3 4 5 -6 9 -14 8 -32
-4 -13 -8 -24 -13 -24 -9 0 4 -6 2 -12 -4 -29 -22 -73 -23 -96 -2 -12 11 -22
17 -22 12 0 -10 -65 -9 -190 2 -57 6 -71 5 -60 -4 12 -9 10 -10 -10 -5 -14 4
-37 13 -52 20 -18 9 -28 10 -28 3 0 -6 -6 -6 -15 2 -8 7 -15 9 -15 6 0 -4 -10
0 -22 8 -12 9 -30 16 -40 16 -21 0 -23 11 -6 28 9 9 9 12 0 12 -7 0 -11 3 -11
8 3 20 -2 32 -15 32 -8 0 -22 10 -30 22 -9 12 -16 17 -16 10 0 -21 -20 -13
-32 13 -7 17 -15 22 -22 15 -8 -6 -12 -3 -13 8 -1 9 -3 34 -6 55 -3 29 -1 37
12 37 14 0 14 2 1 11 -11 8 -7 9 18 5 31 -5 32 -4 32 28 0 20 8 40 20 51 12
11 20 13 20 6 0 -7 4 -9 10 -6 5 3 20 -1 32 -9 20 -14 23 -14 35 3 14 21 46
18 76 -7 15 -14 19 -13 35 1 25 23 119 23 144 0 16 -14 20 -15 36 -1 9 9 38
19 64 22 39 6 50 4 67 -13 20 -20 20 -20 44 0 31 23 55 24 79 2 17 -15 19 -15
35 4 21 24 61 23 78 -1 12 -16 14 -16 34 5 24 26 40 18 43 -22 2 -22 6 -24 35
-21 18 2 36 8 39 13 3 5 20 9 38 9 19 0 39 7 46 15 7 8 29 15 49 15 27 0 32 3
21 10 -9 6 -10 10 -3 10 6 0 14 -4 17 -9 6 -9 46 -4 46 6 0 2 -5 13 -10 23 -7
13 -7 21 0 25 6 4 8 10 5 15 -3 4 3 11 12 14 25 10 -31 37 -82 39 -33 2 -40
-1 -40 -17 0 -22 -39 -39 -72 -33 -13 2 -23 0 -23 -4 0 -5 -22 -7 -50 -6 -27
1 -51 -2 -53 -6 -1 -5 -28 -9 -59 -10 -31 -1 -54 -5 -51 -9 2 -5 -6 -8 -19 -8
-65 -1 -177 -9 -211 -15 -24 -5 -42 -3 -51 4 -8 7 -20 11 -28 10 -37 -5 -89 2
-83 11 6 9 2 12 -27 14 -7 1 -16 6 -20 11 -5 6 -12 4 -19 -5 -9 -13 -10 -12
-5 3 4 13 0 20 -14 24 -11 3 -20 9 -20 12 0 4 -7 8 -15 9 -8 1 -22 3 -30 4 -8
1 -12 5 -9 10 6 9 -10 11 -19 2 -4 -4 -21 -8 -39 -10 -18 -1 -62 -5 -96 -8
-49 -4 -67 -2 -79 9 -9 9 -10 15 -3 15 6 0 9 4 6 9 -3 4 6 6 21 3 18 -3 24 -1
19 6 -5 8 -1 10 10 5 13 -5 15 -3 9 8 -5 8 0 6 12 -4 20 -18 53 -18 117 0 12
3 16 1 12 -6 -7 -12 58 -9 102 4 13 5 22 3 22 -4 0 -6 5 -11 11 -11 5 0 7 5 4
10 -4 7 3 9 20 6 35 -6 86 4 79 15 -5 9 11 12 61 9 18 0 39 7 52 19 12 12 28
21 35 22 9 0 10 2 1 5 -7 3 -9 12 -6 20 5 13 7 13 15 2 7 -10 11 -10 15 0 2 6
11 12 19 12 9 0 13 4 10 8 -3 5 1 9 9 9 8 0 12 -5 9 -11 -3 -6 3 -1 14 11 12
14 23 18 33 13 8 -5 19 -4 26 2 9 8 13 7 13 -2 0 -10 5 -9 18 2 9 9 22 13 29
11 6 -2 14 5 18 16 3 11 14 23 25 26 10 3 25 17 34 30 14 21 14 25 2 25 -8 0
-16 6 -19 13 -3 9 -8 9 -17 1 -9 -9 -19 -8 -42 3 -21 11 -44 13 -76 9 -26 -4
-55 -7 -64 -7 -10 0 -18 -4 -18 -10 0 -5 -7 -9 -16 -9 -21 0 -56 -39 -47 -54
3 -6 0 -5 -8 2 -17 16 -49 16 -49 0 0 -10 -3 -9 -9 1 -6 9 -10 10 -16 2 -4 -7
-11 -8 -18 -3 -7 4 -24 9 -40 10 -18 1 -45 18 -77 50 -28 27 -68 55 -90 62
-23 8 -45 21 -50 29 -8 13 -9 12 -10 -7 0 -14 -4 -20 -10 -17 -6 4 -17 1 -25
-5 -12 -10 -18 -10 -30 0 -8 6 -19 9 -25 5 -5 -3 -13 1 -16 10 -4 8 -13 14
-22 13 -9 -2 -22 9 -29 24 -17 34 -40 27 -48 -15 -9 -46 -37 -111 -52 -120 -8
-5 -10 -14 -7 -20 4 -7 4 -9 -1 -5 -4 4 -14 0 -22 -10 -8 -9 -11 -11 -7 -3 5
10 3 12 -6 6 -10 -6 -9 -11 5 -22 18 -12 17 -13 -6 -14 -13 -1 -35 0 -48 1
-14 1 -21 -2 -17 -9 4 -6 0 -11 -10 -11 -14 0 -14 3 -4 15 18 21 9 26 -14 9
-11 -8 -16 -14 -12 -14 5 0 2 -8 -5 -17 -12 -15 -12 -16 3 -10 12 4 15 2 11
-9 -7 -20 -26 -17 -47 8 -15 18 -16 20 -2 15 9 -4 16 -2 16 4 0 15 22 35 46
43 12 3 21 12 21 19 0 16 -93 22 -102 7 -3 -5 -24 -14 -46 -20 -22 -6 -49 -20
-60 -31 -10 -10 -28 -19 -40 -19 -11 0 -18 -3 -16 -7 3 -5 -1 -14 -9 -21 -8
-7 -14 -9 -14 -4 0 14 -41 7 -51 -9 -5 -8 -9 -9 -9 -4 0 21 17 35 33 29 12 -4
17 -1 17 10 0 9 -6 13 -14 10 -9 -3 -15 5 -20 27 -5 24 -10 30 -25 26 -10 -2
-25 0 -32 5 -10 7 -9 8 5 4 17 -6 17 -5 5 11 -20 25 -30 32 -43 27 -16 -6 -19
46 -4 64 10 13 10 14 1 8 -7 -4 -13 -3 -13 3 0 5 -9 13 -20 16 -11 3 -20 11
-20 17 0 6 6 6 15 -2 12 -10 15 -10 15 4 0 10 -8 16 -22 16 -21 0 -21 0 -2 16
10 8 13 13 7 9 -13 -6 -17 10 -14 48 1 9 -3 17 -10 17 -8 0 -10 11 -6 35 3 20
2 35 -4 35 -6 0 -7 -5 -3 -12 4 -7 3 -8 -4 -4 -6 4 -9 13 -6 21 4 8 10 13 14
10 4 -3 11 7 14 23 4 15 9 35 12 45 3 9 0 17 -6 17 -6 0 -8 -4 -5 -10 3 -5 2
-10 -3 -10 -21 0 -22 33 -2 47 20 14 29 40 10 28 -5 -3 -10 -2 -10 4 0 5 4 11
9 13 6 2 11 15 13 29 6 46 23 57 71 49 23 -5 47 -4 53 1 6 5 21 6 35 3 13 -2
42 -6 64 -8 22 -3 51 -7 65 -10 51 -13 156 -7 215 13 55 18 57 20 25 21 -26 0
-31 3 -20 10 13 8 12 10 -5 11 -11 1 -23 1 -27 0 -18 -3 -6 20 14 28 15 5 18
10 9 15 -7 5 -15 6 -17 3 -3 -3 -14 3 -25 14 -24 24 -43 25 -35 2 4 -12 0 -10
-12 5 -12 15 -24 21 -35 16 -12 -4 -17 -2 -15 7 2 9 -5 13 -23 11 -14 -2 -31
4 -38 12 -8 9 -17 14 -21 11 -5 -3 -11 -1 -15 5 -9 15 58 13 74 -2 7 -8 39
-13 86 -12 83 1 110 15 123 66 l7 28 31 -17 c65 -38 69 -41 59 -52 -6 -6 -30
-12 -53 -13 -24 -1 -38 -4 -32 -8 15 -10 152 -2 163 9 5 5 -6 25 -28 50 -25
28 -31 39 -19 35 50 -18 77 -60 65 -102 -8 -26 -6 -31 15 -42 12 -7 23 -16 22
-19 0 -3 0 -15 1 -25 1 -19 1 -19 15 -1 12 17 13 15 9 -20 -2 -21 -8 -44 -13
-50 -6 -7 -7 -15 -3 -19 4 -4 0 -4 -10 0 -14 5 -16 2 -11 -12 4 -11 11 -24 16
-31 5 -6 5 -12 -1 -15 -6 -1 -12 -12 -14 -24 -1 -12 -10 -32 -19 -46 -10 -15
-13 -30 -8 -38 10 -17 1 -42 -12 -34 -6 4 -5 10 3 16 11 8 11 9 -1 5 -8 -2
-14 -11 -14 -20 1 -9 -2 -15 -6 -12 -16 10 -20 -13 -6 -28 8 -8 12 -17 9 -21
-17 -17 7 -3 29 17 62 55 88 71 72 45 -5 -8 0 -7 11 2 11 9 16 10 11 3 -4 -9
-1 -13 10 -13 11 0 15 6 11 20 -3 11 -1 18 4 14 5 -3 9 0 9 6 0 6 4 9 9 6 5
-3 12 1 15 10 5 12 2 15 -9 10 -11 -4 -14 -2 -8 7 4 6 8 19 10 27 1 8 10 20
20 28 10 7 17 20 15 27 -2 10 3 13 14 8 14 -5 16 -2 10 21 -5 20 -4 26 5 20 7
-4 10 -2 7 7 -3 8 -11 13 -18 11 -11 -3 -11 0 0 12 11 15 7 20 -12 17 -11 -1
-10 11 2 29 8 13 10 12 10 -2 0 -10 5 -18 10 -18 13 0 13 23 1 36 -12 12 -22
64 -12 64 4 0 7 16 8 35 1 19 -3 32 -8 29 -13 -7 -12 -3 10 42 11 21 17 42 14
46 -2 5 1 8 6 8 6 0 11 -4 11 -10 0 -5 5 -10 12 -10 6 0 4 8 -6 19 -10 11 -15
25 -10 32 4 7 -1 18 -11 26 -11 7 -14 13 -8 13 8 0 7 8 -2 27 -10 18 -11 32
-4 45 6 12 6 25 -1 38 -12 22 -30 27 -31 8 0 -10 -2 -10 -6 0 -2 6 -9 10 -14
6 -5 -3 -9 0 -9 6 0 6 -5 8 -10 5 -6 -4 -17 -1 -25 5 -8 7 -15 9 -15 6 0 -4
-7 0 -16 9 -9 9 -23 14 -30 11 -8 -3 -14 -1 -14 4 0 5 -9 12 -20 15 -11 4 -17
11 -14 17 4 6 2 8 -4 4 -6 -3 -13 -2 -16 2 -3 5 -17 7 -31 4 -18 -3 -25 0 -25
11 0 19 -19 26 -44 17 -27 -9 -72 0 -54 11 8 6 0 7 -19 3 -22 -4 -33 -3 -33 5
0 8 -8 10 -21 6 -12 -4 -19 -3 -16 1 3 5 -6 10 -20 11 -14 0 -29 7 -34 15 -8
11 -13 5 -11 -14 1 -3 -6 -9 -14 -12 -12 -4 -14 -1 -9 14 5 16 3 19 -12 13
-15 -5 -16 -3 -5 8 20 22 14 30 -20 23 -18 -3 -43 -8 -55 -9 -12 -2 -26 -6
-31 -9 -6 -3 -12 1 -15 9 -4 10 -1 12 11 9 14 -5 13 -3 -2 10 -11 9 -16 16
-10 16 5 0 -6 9 -25 21 -27 16 -31 23 -20 30 10 6 6 9 -15 9 -22 0 -26 3 -18
13 12 14 -1 43 -15 34 -5 -3 -10 -1 -11 6 -1 7 -3 24 -6 40 -3 17 0 25 6 21 6
-4 17 0 23 10 11 14 13 13 13 -9 0 -14 -5 -28 -11 -32 -6 -4 -7 -1 -2 7 5 9 4
11 -3 6 -18 -11 -15 -39 3 -32 8 3 14 0 12 -6 -1 -6 4 -13 11 -15 8 -3 12 1
10 9 -2 8 9 26 25 41 29 30 36 53 12 43 -8 -3 -14 0 -12 7 1 6 -8 13 -20 15
-24 4 -30 16 -13 27 20 12 -1 24 -26 15 -19 -8 -26 -6 -30 5 -4 8 -11 12 -17
8 -19 -12 -56 -11 -60 1 -3 7 6 13 22 14 20 1 23 0 11 -8 -9 -6 -10 -10 -3
-10 24 0 23 20 -1 30 -25 9 -37 40 -16 40 5 0 7 -8 3 -17 -6 -16 -3 -15 18 2
18 15 20 16 10 3 -13 -17 -10 -20 17 -17 12 1 2 33 -16 47 -9 7 -11 12 -4 12
7 0 12 4 12 10 0 5 -8 7 -17 4 -17 -5 -17 -5 0 6 9 6 23 8 30 4 7 -5 6 0 -3
11 -14 17 -13 18 3 12 11 -4 17 -2 17 7 0 9 -7 12 -19 9 -14 -3 -21 3 -29 26
-8 22 -7 31 1 35 7 2 3 5 -9 5 -15 1 -20 7 -18 24 1 12 3 26 3 30 1 5 5 6 10
2 6 -3 8 -14 6 -25 -2 -11 2 -20 8 -20 17 0 85 59 69 60 -7 0 3 15 22 34 20
18 36 41 36 50 0 11 4 14 13 10 8 -5 8 -2 -2 9 -11 15 -11 17 2 17 21 0 29 26
11 40 -10 9 -14 9 -14 1 0 -6 -4 -11 -9 -11 -8 0 -8 21 -1 40 1 3 1 14 0 25
-1 11 2 16 7 12 4 -5 8 -18 8 -30 0 -16 6 -22 22 -23 19 -1 22 3 17 22 -7 26
13 33 32 14 7 -7 11 -6 11 4 0 8 -4 13 -9 10 -4 -3 -8 -2 -8 3 0 4 12 14 27
21 20 9 24 9 15 0 -16 -16 -15 -33 1 -19 8 6 17 8 20 4 4 -3 7 3 7 14 0 12 -6
24 -12 26 -7 3 2 4 20 2 27 -3 35 1 42 18 5 12 9 16 9 10 1 -15 28 -18 33 -4
6 15 48 24 48 9 0 -10 3 -9 10 2 5 8 17 15 27 15 11 0 17 7 17 18 -2 17 0 17
15 3 10 -9 21 -13 24 -9 4 3 7 0 7 -8 0 -9 3 -10 8 -4 12 17 79 34 90 23 6 -6
16 -7 24 -2 21 13 58 16 58 4 0 -6 5 -8 10 -5 6 3 16 3 22 -1 18 -11 48 -12
48 -2 0 5 4 7 9 4 5 -4 11 0 14 6 3 10 7 10 18 1 19 -16 102 -5 95 12 -7 20 3
24 36 14 22 -6 36 -5 47 4 12 10 14 9 9 -4 -4 -9 -1 -16 8 -16 7 0 11 4 8 9
-3 4 2 8 10 8 9 0 16 5 16 10 0 6 8 10 18 10 14 0 15 -2 2 -10 -29 -19 0 -10
45 14 37 20 51 23 77 15 20 -5 34 -5 38 1 4 6 14 4 26 -5 25 -19 34 -19 34 0
0 14 4 14 33 0 30 -15 31 -15 12 1 -19 16 -15 16 29 -2 15 -6 17 -4 11 14 -7
23 10 31 18 10 3 -7 6 -3 6 8 1 17 6 20 26 17 13 -3 29 -11 35 -18 10 -13 50
-9 50 4 0 10 41 11 60 1 19 -10 60 -2 60 12 0 5 -5 6 -12 2 -7 -4 -8 -3 -4 4
5 9 15 8 37 -3 16 -9 29 -13 29 -9z m33 9 c-3 -9 -8 -14 -10 -11 -3 3 -2 9 2
15 9 16 15 13 8 -4z m-1610 -270 c-3 -9 -8 -14 -10 -11 -3 3 -2 9 2 15 9 16
15 13 8 -4z m52 -55 c-3 -5 -14 -10 -23 -10 -15 0 -15 2 -2 10 20 13 33 13 25
0z m-102 -54 c-3 -4 -9 -2 -14 5 -13 22 -11 31 5 17 8 -7 12 -17 9 -22z m-21
-117 c-9 -9 -21 -14 -27 -11 -5 3 -4 7 3 10 7 2 10 7 8 11 -3 4 4 7 14 7 18 0
18 -1 2 -17z m-81 -66 c-12 -20 -14 -14 -5 12 4 9 9 14 11 11 3 -2 0 -13 -6
-23z m21 -15 c-7 -7 -12 -8 -12 -2 0 14 12 26 19 19 2 -3 -1 -11 -7 -17z
m2278 -28 c0 -3 -5 -12 -10 -20 -9 -13 -10 -13 -10 0 0 12 -2 12 -9 1 -6 -9
-11 -10 -15 -2 -4 6 -2 11 4 11 6 0 9 4 6 8 -2 4 4 8 15 8 10 0 19 -3 19 -6z
m1785 -118 c-3 -3 -11 0 -18 7 -9 10 -8 11 6 5 10 -3 15 -9 12 -12z m-3920
-132 c3 -5 1 -10 -4 -10 -6 0 -11 5 -11 10 0 6 2 10 4 10 3 0 8 -4 11 -10z
m3862 -26 c-3 -3 -12 -4 -19 -1 -8 3 -5 6 6 6 11 1 17 -2 13 -5z m-103 -12
c-9 -5 -8 -11 2 -20 12 -11 14 -10 14 4 0 14 3 14 15 4 14 -12 14 -15 0 -30
-8 -9 -15 -22 -15 -28 0 -7 -5 -12 -11 -12 -6 0 -9 7 -5 15 6 17 -9 21 -19 5
-3 -5 -12 -10 -18 -10 -7 0 -4 5 6 11 9 5 17 15 17 20 0 6 -4 8 -9 5 -4 -3 -6
6 -3 19 2 15 11 25 21 25 10 0 12 -3 5 -8z m83 -44 c10 -17 14 -40 8 -55 -5
-16 -31 -7 -39 13 -4 11 -2 12 14 4 16 -8 19 -7 17 10 -2 24 -38 24 -49 0 -5
-12 -7 -12 -7 2 -1 9 7 22 17 27 23 14 29 13 39 -1z m-117 -78 c0 -5 -10 -10
-22 -9 -22 0 -22 1 -3 9 11 5 21 9 23 9 1 1 2 -3 2 -9z m147 -15 c0 -8 -4 -12
-9 -9 -5 3 -6 10 -3 15 9 13 12 11 12 -6z m-293 -150 c3 -8 1 -15 -4 -15 -6 0
-10 7 -10 15 0 8 2 15 4 15 2 0 6 -7 10 -15z m11 -67 c-19 -11 -30 -5 -21 11
4 6 14 7 22 4 15 -5 14 -7 -1 -15z m20 -37 c3 -5 1 -12 -5 -16 -5 -3 -10 -2
-10 4 0 7 -9 7 -25 -1 -19 -9 -28 -9 -35 0 -6 7 -8 10 -4 8 3 -2 17 0 32 4 37
11 40 11 47 1z m-3385 -82 c0 -5 -10 -8 -22 -8 -18 1 -19 2 -5 6 15 4 16 7 5
21 -12 15 -11 16 5 3 9 -7 17 -17 17 -22z m3269 -39 c0 -10 -3 -8 -9 5 -12 27
-12 43 0 25 5 -8 9 -22 9 -30z m-1124 10 c16 -13 21 -55 7 -46 -5 3 -41 -28
-82 -69 -94 -95 -116 -92 -70 10 17 38 25 58 30 80 8 37 23 47 61 42 22 -3 46
-11 54 -17z m-2096 -6 c58 -12 31 -19 -73 -19 -110 0 -125 5 -48 16 68 9 86
10 121 3z m-24 -55 c10 -15 -1 -23 -20 -15 -9 3 -13 10 -10 16 8 13 22 13 30
-1z m3215 -24 c14 -18 13 -19 -1 -8 -9 7 -19 10 -23 6 -4 -4 -4 1 0 10 3 10 7
17 8 15 1 -2 8 -12 16 -23z m-51 -67 c-13 -5 -26 -13 -30 -19 -3 -6 -11 -4
-19 6 -11 13 -10 15 1 10 8 -3 23 1 34 9 11 8 24 12 29 8 5 -3 -1 -9 -15 -14z
m58 2 c1 -11 -2 -20 -8 -20 -5 0 -9 9 -9 20 0 11 4 20 8 20 4 0 8 -9 9 -20z
m-70 -99 c0 -8 -6 -26 -12 -38 -12 -24 -13 -24 -18 -2 -3 11 -10 18 -16 15 -5
-4 -13 -1 -17 5 -4 7 -3 9 3 6 5 -3 15 2 22 12 16 22 38 23 38 2z m66 -8 c-7
-2 -21 -2 -30 0 -10 3 -4 5 12 5 17 0 24 -2 18 -5z m-5157 -23 c0 -12 -4 -16
-9 -11 -5 5 -6 14 -3 20 10 15 12 14 12 -9z m4964 -10 c6 -11 8 -20 6 -20 -3
0 -10 9 -16 20 -6 11 -8 20 -6 20 3 0 10 -9 16 -20z m-4170 -10 c0 -5 -4 -10
-10 -10 -5 0 -10 5 -10 10 0 6 5 10 10 10 6 0 10 -4 10 -10z m-251 -69 c0 -14
-1 -14 -6 -1 -3 8 -13 24 -22 35 -16 20 -16 20 7 1 12 -11 22 -26 21 -35z m23
35 c7 4 8 2 4 -5 -9 -13 -26 -5 -25 12 0 9 2 8 6 -1 2 -6 10 -9 15 -6z m-182
-11 c7 -8 8 -15 2 -15 -5 0 -15 7 -22 15 -7 8 -8 15 -2 15 5 0 15 -7 22 -15z
m37 9 c-3 -3 -12 -4 -19 -1 -8 3 -5 6 6 6 11 1 17 -2 13 -5z m83 -16 c0 -4 -6
-8 -14 -8 -8 0 -23 -3 -33 -6 -17 -6 -17 -6 1 8 20 16 46 20 46 6z m15 -18
c-3 -5 -12 -10 -18 -10 -7 0 -6 4 3 10 19 12 23 12 15 0z m85 3 c12 10 12 9 2
-4 -6 -9 -10 -18 -7 -21 3 -2 -2 -5 -10 -5 -8 0 -13 3 -10 5 3 3 -3 11 -13 19
-15 13 -15 13 4 4 15 -7 25 -7 34 2z m-555 -22 c-8 -14 -35 -14 -35 0 0 5 4 8
9 4 5 -3 13 0 16 6 4 5 9 8 12 5 3 -2 2 -9 -2 -15z m132 -6 c-9 -9 -14 -10
-19 -1 -13 19 -9 24 11 19 16 -4 17 -8 8 -18z m51 -16 c-3 -8 -7 -3 -11 10 -4
17 -3 21 5 13 5 -5 8 -16 6 -23z m242 21 c0 -5 -2 -10 -4 -10 -3 0 -8 5 -11
10 -3 6 -1 10 4 10 6 0 11 -4 11 -10z m77 -6 c-3 -3 -12 -4 -19 -1 -8 3 -5 6
6 6 11 1 17 -2 13 -5z m153 -4 c0 -5 -2 -10 -4 -10 -3 0 -8 5 -11 10 -3 6 -1
10 4 10 6 0 11 -4 11 -10z m-790 -10 c0 -5 -2 -10 -4 -10 -3 0 -8 5 -11 10 -3
6 -1 10 4 10 6 0 11 -4 11 -10z m1075 0 c3 -5 1 -10 -4 -10 -6 0 -11 5 -11 10
0 6 2 10 4 10 3 0 8 -4 11 -10z m-1173 -7 c-6 -2 -10 -9 -6 -14 3 -5 0 -9 -5
-9 -12 0 -14 13 -4 23 3 4 11 7 17 6 6 0 5 -3 -2 -6z m113 -12 c-3 -6 -14 -10
-23 -10 -15 1 -15 2 1 6 9 2 17 9 17 15 0 6 3 9 6 5 3 -3 3 -10 -1 -16z m35
10 c0 -9 -27 -41 -35 -41 -2 0 2 11 8 25 12 25 27 34 27 16z m1187 -59 c-8
-10 -7 -16 2 -21 15 -10 4 -61 -13 -61 -13 0 -56 86 -56 111 0 8 5 20 12 27
17 17 71 -37 55 -56z m3763 47 c0 -4 -7 -6 -15 -3 -8 4 -15 10 -15 15 0 4 7 6
15 3 8 -4 15 -10 15 -15z m-4883 -11 c2 -18 0 -20 -7 -8 -12 18 -13 30 -2 30
4 0 9 -10 9 -22z m234 -5 c-12 -20 -14 -14 -5 12 4 9 9 14 11 11 3 -2 0 -13
-6 -23z m-57 -4 c-3 -5 -12 -9 -20 -9 -8 0 -12 -5 -9 -11 4 -6 14 -8 22 -4 13
4 14 3 4 -9 -11 -13 -15 -12 -32 5 -22 22 -17 42 8 32 11 -4 14 -3 9 5 -5 8
-2 10 8 6 9 -3 13 -10 10 -15z m356 11 c0 -3 -4 -11 -9 -19 -11 -17 -43 -7
-36 11 5 13 45 20 45 8z m223 -4 c-3 -5 2 -15 12 -23 11 -7 13 -13 6 -13 -7 0
-10 -4 -7 -8 3 -5 -1 -9 -9 -9 -8 0 -15 4 -15 9 0 4 5 8 12 8 6 0 4 8 -6 19
-10 11 -25 17 -34 14 -14 -4 -14 -3 -3 5 18 13 52 11 44 -2z m-1082 -19 c-10
-9 -11 -8 -5 6 3 10 9 15 12 12 3 -3 0 -11 -7 -18z m309 14 c0 -6 -4 -13 -10
-16 -5 -3 -10 1 -10 9 0 9 5 16 10 16 6 0 10 -4 10 -9z m910 -1 c13 -9 13 -10
0 -10 -13 0 -13 -1 0 -10 8 -5 11 -10 5 -10 -5 0 -17 5 -25 10 -13 9 -13 10 0
10 13 0 13 1 0 10 -8 5 -10 10 -5 10 6 0 17 -5 25 -10z m4073 -4 c6 -15 -19
-30 -33 -21 -13 8 -1 35 15 35 7 0 15 -6 18 -14z m-4703 -17 c0 -6 -4 -7 -10
-4 -5 3 -10 11 -10 16 0 6 5 7 10 4 6 -3 10 -11 10 -16z m427 -3 c-6 -8 -15
-12 -19 -9 -4 2 -2 10 5 17 6 8 15 12 19 9 4 -2 2 -10 -5 -17z m277 7 c4 -11
1 -11 -14 -3 -24 13 -25 17 -5 17 8 0 16 -6 19 -14z m-1018 -2 c-3 -5 -16 -11
-28 -14 -22 -6 -22 -5 -4 8 22 17 40 20 32 6z m869 -8 c-2 -10 -4 -21 -4 -25
-2 -14 -21 -9 -21 5 0 11 19 37 26 37 1 0 1 -8 -1 -17z m26 -2 c-6 -10 -7 -21
-4 -25 3 -3 1 -6 -6 -6 -7 0 -9 -4 -6 -10 3 -5 1 -10 -4 -10 -6 0 -11 2 -11 5
0 10 30 65 36 65 2 0 0 -8 -5 -19z m-951 -16 c14 -18 13 -19 -1 -8 -9 7 -19
10 -23 6 -4 -4 -4 1 0 10 3 10 7 17 8 15 1 -2 8 -12 16 -23z m-222 -10 c-3 -3
-9 2 -12 12 -6 14 -5 15 5 6 7 -7 10 -15 7 -18z m825 10 c-3 -9 -8 -14 -10
-11 -3 3 -2 9 2 15 9 16 15 13 8 -4z m4234 -7 c2 -17 0 -19 -7 -8 -5 8 -6 18
-4 22 8 12 10 10 11 -14z m113 2 c0 -5 -2 -10 -4 -10 -3 0 -8 5 -11 10 -3 6
-1 10 4 10 6 0 11 -4 11 -10z m-2543 -15 c0 -8 -4 -12 -9 -9 -5 3 -6 10 -3 15
9 13 12 11 12 -6z m2458 5 c-4 -6 -2 -17 4 -24 9 -10 7 -15 -9 -19 -16 -4 -19
-2 -11 7 6 7 8 16 5 19 -6 6 3 27 12 27 3 0 2 -5 -1 -10z m-5070 -10 c-3 -5
-12 -10 -18 -10 -7 0 -6 4 3 10 19 12 23 12 15 0z m1125 -47 c0 -30 -17 -38
-30 -14 -9 18 -8 20 7 14 14 -5 15 -3 6 7 -6 7 -9 19 -6 27 8 20 23 -3 23 -34z
m1400 43 c0 -3 -4 -8 -10 -11 -5 -3 -10 -1 -10 4 0 6 5 11 10 11 6 0 10 -2 10
-4z m70 -22 c0 -2 -7 -4 -15 -4 -8 0 -15 4 -15 10 0 5 7 7 15 4 8 -4 15 -8 15
-10z m-1400 -23 c3 -2 -3 -1 -12 2 -10 4 -18 2 -18 -3 0 -6 6 -10 13 -11 6 0
3 -4 -8 -8 -25 -10 -35 -5 -35 17 0 15 2 15 10 2 8 -12 10 -10 10 9 0 23 6 22
40 -8z m1335 -1 c3 -5 1 -10 -4 -10 -6 0 -11 5 -11 10 0 6 2 10 4 10 3 0 8 -4
11 -10z m2475 -34 c0 -8 6 -17 13 -19 9 -4 9 -6 0 -6 -7 -1 -17 8 -23 19 -7
14 -7 20 0 20 5 0 10 -6 10 -14z m70 5 c0 -5 -6 -11 -12 -14 -7 -2 -10 -7 -7
-11 8 -8 40 4 35 13 -3 4 4 7 15 7 10 0 19 -1 19 -3 0 -8 -62 -33 -70 -28 -6
4 -13 -1 -16 -9 -3 -9 -10 -16 -15 -16 -4 0 1 16 12 35 20 33 39 46 39 26z
m88 -33 c17 -17 15 -28 -5 -28 -14 0 -15 2 -4 9 9 6 10 11 2 15 -6 4 -16 4
-23 0 -7 -4 -8 -3 -4 4 9 15 19 15 34 0z m-108 -40 c-17 -7 -20 -12 -11 -15
11 -5 11 -7 0 -14 -10 -6 -11 -9 -1 -9 6 0 12 -4 12 -8 0 -5 -7 -9 -15 -9 -8
0 -11 5 -8 10 4 6 -3 8 -15 5 -15 -4 -22 -2 -22 9 0 10 7 13 23 8 20 -5 20 -5
-3 10 -22 14 -22 15 -3 10 12 -3 24 -1 28 5 3 5 14 10 23 9 11 0 9 -4 -8 -11z
m-3664 -55 c-4 -4 -11 -1 -16 7 -16 25 -11 35 7 17 9 -9 13 -20 9 -24z m3594
28 c0 -5 -9 -11 -20 -14 -22 -6 -28 8 -7 16 19 8 27 8 27 -2z m105 -11 c3 -5
-1 -10 -9 -10 -9 0 -16 5 -16 10 0 6 4 10 9 10 6 0 13 -4 16 -10z m12 -26 c-3
-3 -12 -4 -19 -1 -8 3 -5 6 6 6 11 1 17 -2 13 -5z m-159 -79 c-3 -3 -9 2 -12
12 -6 14 -5 15 5 6 7 -7 10 -15 7 -18z m46 -2 c8 3 18 2 21 -3 4 -6 -5 -10
-19 -10 -13 0 -27 -6 -29 -12 -3 -7 -6 1 -6 17 -1 21 2 26 8 16 5 -8 16 -11
25 -8z m-109 -33 c3 -6 -4 -10 -17 -10 -18 0 -20 2 -8 10 19 12 18 12 25 0z
m79 -42 c7 -5 6 -8 -4 -9 -8 0 -26 -2 -40 -4 -25 -4 -25 -4 -2 7 12 6 23 20
23 32 1 20 2 20 6 1 3 -11 10 -23 17 -27z m-79 -27 c-6 -5 -25 10 -25 20 0 5
6 4 14 -3 8 -7 12 -15 11 -17z m-2638 -123 c-3 -8 -6 -5 -6 6 -1 11 2 17 5 13
3 -3 4 -12 1 -19z m2698 10 c5 4 5 1 1 -5 -10 -18 -23 -16 -30 3 -5 13 -4 14
7 6 8 -7 18 -8 22 -4z m-130 -38 c-13 -14 -22 -17 -29 -10 -7 7 -6 14 3 23 10
10 11 8 6 -8 -6 -19 -5 -19 12 1 10 12 20 20 22 18 2 -2 -4 -13 -14 -24z m96
-33 c-10 -9 -11 -8 -5 6 3 10 9 15 12 12 3 -3 0 -11 -7 -18z m-819 -33 c-6
-11 -11 -13 -16 -5 -4 6 -2 11 3 11 6 0 11 8 12 18 0 9 3 12 5 5 3 -7 1 -20
-4 -29z m818 13 c0 -7 -31 -67 -35 -67 -3 0 3 32 11 58 3 10 24 18 24 9z
m-2927 -48 c35 -38 60 -47 63 -21 1 7 2 17 3 22 1 7 8 7 22 -1 14 -7 19 -17
16 -30 -3 -11 0 -19 7 -19 6 0 18 -9 26 -20 8 -11 20 -20 26 -20 7 0 26 -13
42 -30 33 -33 33 -36 -1 -18 -19 10 -20 9 -10 -4 7 -8 9 -18 5 -22 -4 -4 7 -4
23 0 27 7 29 6 17 -9 -8 -9 -21 -13 -30 -10 -14 4 -15 3 -2 -5 10 -8 18 -8 27
-1 7 6 17 8 23 4 12 -7 14 -26 3 -24 -30 5 -33 -2 -19 -35 8 -19 12 -37 8 -40
-3 -3 0 -6 6 -6 7 0 12 -9 12 -19 0 -11 4 -21 10 -23 5 -1 11 -15 12 -30 1
-16 6 -28 10 -28 4 0 12 -9 18 -20 9 -16 8 -19 -7 -13 -12 5 -15 2 -10 -10 6
-15 3 -16 -13 -7 -25 14 -40 5 -41 -23 0 -12 -3 -16 -6 -9 -7 19 -23 14 -16
-5 5 -15 4 -16 -8 -7 -16 13 -51 15 -43 2 3 -4 1 -8 -4 -8 -6 0 -8 -9 -5 -20
3 -11 9 -18 12 -15 4 2 8 -2 8 -10 0 -8 -5 -15 -10 -15 -5 0 5 -13 22 -29 17
-16 31 -34 31 -41 0 -6 7 -18 15 -26 8 -8 12 -21 9 -28 -3 -9 1 -13 13 -13 14
2 17 -4 15 -24 -2 -15 6 -37 20 -54 l22 -29 -31 19 c-18 10 -30 22 -28 26 3 4
-2 12 -9 18 -11 9 -16 9 -22 0 -4 -8 -3 -9 4 -5 7 4 12 1 12 -9 0 -14 -3 -14
-24 2 -16 12 -20 20 -12 25 7 5 1 16 -19 33 -16 13 -25 24 -19 25 7 0 15 7 18
16 4 11 2 15 -8 11 -7 -3 -22 5 -33 17 -19 22 -21 29 -25 81 -1 14 -7 25 -13
25 -13 0 -43 29 -45 44 -1 5 4 13 12 17 10 7 8 9 -6 9 -12 0 -16 5 -12 15 3 9
0 15 -8 15 -7 0 -21 18 -31 40 -10 22 -22 41 -27 41 -4 1 -12 2 -17 3 -5 0
-13 5 -18 9 -4 5 -3 7 2 5 6 -2 11 2 13 7 1 6 -1 10 -5 10 -18 1 -32 17 -26
31 3 9 0 14 -8 12 -10 -2 -13 8 -12 40 2 30 -1 41 -9 36 -8 -5 -9 0 -5 15 7
26 -1 53 -13 46 -5 -3 -12 0 -16 6 -5 8 -3 9 6 4 10 -6 12 -3 8 13 -4 13 -1
22 5 22 7 0 5 5 -3 10 -9 6 -10 10 -3 10 7 0 11 15 10 38 -1 22 3 37 10 37 6
0 15 3 19 8 15 14 31 6 67 -34z m2801 7 c-7 -18 -22 -20 -44 -5 -12 8 -10 9 8
4 15 -4 24 -1 28 10 4 9 8 14 10 12 3 -2 2 -12 -2 -21z m76 -20 c0 -8 -7 -16
-15 -20 -12 -4 -13 -2 -2 14 14 24 17 25 17 6z m-67 -11 c-3 -9 -8 -14 -10
-11 -3 3 -2 9 2 15 9 16 15 13 8 -4z m12 -58 c1 -7 -4 -15 -10 -19 -6 -5 -3
-8 6 -8 9 0 19 -7 23 -15 3 -8 11 -15 18 -15 9 0 8 3 -2 10 -13 9 -13 10 0 9
8 0 24 -4 35 -8 17 -7 16 -9 -9 -15 -16 -4 -40 -5 -55 -3 -14 2 -20 2 -13 0
17 -6 15 -28 -3 -43 -9 -8 -15 -8 -15 -2 0 6 -12 25 -27 44 -21 25 -22 28 -5
14 24 -21 28 -16 12 15 -6 11 -7 19 -1 19 5 0 11 -7 15 -15 3 -8 13 -15 23
-15 16 0 16 1 0 13 -11 8 -15 20 -11 35 6 22 19 22 19 -1z m-147 -59 c-2 -7 2
-12 9 -13 7 0 17 -5 22 -10 7 -7 -2 -10 -27 -11 -20 0 -31 1 -24 3 6 3 10 9 6
14 -3 5 -2 14 1 19 8 14 16 13 13 -2z m98 -37 c1 -6 0 -7 -3 -1 -2 5 -13 10
-24 10 -10 0 -19 4 -19 10 0 13 43 -4 46 -19z m-96 -17 c0 -8 -19 -13 -24 -6
-3 5 1 9 9 9 8 0 15 -2 15 -3z m115 -13 c3 -6 -3 -9 -14 -8 -11 0 -17 5 -15 9
7 11 22 10 29 -1z m-2465 -32 c0 -8 5 -8 15 1 8 7 15 11 16 9 6 -31 5 -38 -6
-42 -6 -3 -19 3 -29 14 -19 22 -20 29 -6 29 6 0 10 -5 10 -11z m2200 5 c0 -8
-19 -13 -24 -6 -3 5 1 9 9 9 8 0 15 -2 15 -3z m143 -17 c3 -8 -1 -14 -8 -14
-7 0 -11 6 -8 14 3 7 6 13 8 13 2 0 5 -6 8 -13z m-2286 -19 c-3 -8 -6 -5 -6 6
-1 11 2 17 5 13 3 -3 4 -12 1 -19z m2341 -6 c-1 -10 2 -23 6 -31 7 -11 5 -13
-9 -8 -9 4 -24 2 -31 -4 -7 -6 -18 -8 -24 -4 -6 4 -19 -4 -29 -16 -14 -17 -18
-18 -18 -6 0 9 7 19 16 22 13 5 13 8 2 14 -9 6 -1 8 20 7 34 -2 59 13 59 34 0
6 -5 8 -12 4 -7 -4 -8 -3 -4 5 10 16 28 3 24 -17z m-2354 -10 c2 -4 -5 -9 -17
-9 -17 -2 -19 0 -7 7 18 12 18 12 24 2z m2307 -1 c-12 -8 -51 -4 -51 5 0 2 15
4 33 4 22 0 28 -3 18 -9z m83 -7 c9 -22 -3 -32 -14 -14 -12 19 -12 30 -1 30 5
0 12 -7 15 -16z m-224 -38 c0 -3 -4 -8 -10 -11 -5 -3 -10 -1 -10 4 0 6 5 11
10 11 6 0 10 -2 10 -4z m-55 -36 c-3 -5 -12 -10 -18 -10 -7 0 -6 4 3 10 19 12
23 12 15 0z m-2031 -17 c3 -7 2 -13 -3 -13 -5 0 -14 6 -20 13 -8 10 -7 14 4
14 8 0 16 -6 19 -14z m2154 10 c-10 -2 -18 -9 -18 -15 0 -6 -3 -9 -6 -5 -10
10 6 27 24 26 15 -1 15 -2 0 -6z m-2071 -62 c1 -13 -4 -19 -16 -18 -15 1 -17
4 -7 19 14 23 21 23 23 -1z m2051 1 c7 -5 10 -16 6 -25 -4 -11 -1 -17 7 -17 9
-1 8 -4 -4 -11 -21 -12 -60 -2 -51 13 4 6 9 5 15 -3 4 -7 11 -10 14 -7 12 11
-7 30 -24 25 -10 -2 -18 1 -18 8 0 7 8 10 20 7 14 -3 18 -1 13 6 -8 14 3 15
22 4z m-82 -89 c-10 -10 -19 5 -10 18 6 11 8 11 12 0 2 -7 1 -15 -2 -18z m39
-1 c-3 -3 -11 0 -18 7 -9 10 -8 11 6 5 10 -3 15 -9 12 -12z m-51 -23 c-3 -5 0
-9 5 -9 6 0 11 5 11 10 0 6 5 10 11 10 8 0 8 -5 -1 -15 -17 -20 -27 -19 -40 5
-9 16 -8 18 5 14 8 -3 12 -10 9 -15z m83 -71 c-3 -8 -6 -5 -6 6 -1 11 2 17 5
13 3 -3 4 -12 1 -19z m-117 -122 c0 -3 -4 -8 -10 -11 -5 -3 -10 -1 -10 4 0 6
5 11 10 11 6 0 10 -2 10 -4z m-10 -30 c0 -9 -30 -14 -35 -6 -4 6 3 10 14 10
12 0 21 -2 21 -4z m30 -66 c0 -5 -5 -10 -11 -10 -5 0 -7 5 -4 10 3 6 8 10 11
10 2 0 4 -4 4 -10z m11 -23 c-10 -9 -11 -8 -5 6 3 10 9 15 12 12 3 -3 0 -11
-7 -18z m-120 -10 c-10 -9 -11 -8 -5 6 3 10 9 15 12 12 3 -3 0 -11 -7 -18z
m-490 -61 c0 -20 3 -37 10 -61 1 -5 -3 -21 -9 -35 -9 -22 -11 -17 -11 37 -1
34 -6 74 -11 90 -9 26 -9 27 5 9 8 -11 15 -29 16 -40z m484 34 c-3 -5 -15 -7
-27 -5 -32 7 -31 12 2 13 17 0 28 -3 25 -8z m60 -60 c-3 -5 1 -11 7 -13 8 -4
4 -8 -9 -12 -20 -6 -27 -20 -25 -45 0 -3 -8 -6 -19 -6 -12 0 -19 6 -17 16 1 8
-1 20 -5 27 -5 8 -1 11 14 8 18 -4 20 -1 14 23 -6 26 -6 26 9 7 15 -19 16 -18
6 10 -11 29 -11 29 9 11 11 -10 18 -22 16 -26z m-104 3 c-8 -15 -10 -15 -11
-2 0 17 10 32 18 25 2 -3 -1 -13 -7 -23z m49 13 c0 -7 -9 -16 -20 -19 -17 -4
-18 -2 -9 14 11 22 29 25 29 5z m-1093 -52 c-3 -3 -12 -4 -19 -1 -8 3 -5 6 6
6 11 1 17 -2 13 -5z m-617 -18 c0 -2 -7 -7 -16 -10 -8 -3 -12 -2 -9 4 6 10 25
14 25 6z m1570 -62 c0 -2 -14 -4 -31 -4 -16 0 -28 4 -25 9 5 8 56 3 56 -5z
m155 -13 c3 -5 2 -12 -3 -15 -5 -3 -9 1 -9 9 0 17 3 19 12 6z m-502 -17 c3 -3
3 -13 0 -21 -5 -12 -7 -12 -14 -1 -15 23 -4 40 14 22z m437 -19 c-14 -17 -30
-20 -30 -6 0 5 8 12 18 14 9 3 19 5 21 6 2 0 -2 -6 -9 -14z m70 -5 c0 -5 -2
-10 -4 -10 -3 0 -8 5 -11 10 -3 6 -1 10 4 10 6 0 11 -4 11 -10z m-244 -12 c4
-7 3 -8 -4 -4 -7 4 -12 1 -12 -8 0 -9 -5 -16 -10 -16 -7 0 -7 6 0 20 12 23 16
24 26 8z m-400 -12 c16 -17 19 -46 4 -46 -16 0 -12 -16 5 -18 8 -1 22 -3 30
-4 13 -1 13 -4 -2 -20 -15 -17 -15 -20 -3 -28 12 -8 11 -10 -5 -11 l-20 0 20
-9 c11 -5 15 -9 9 -9 -7 -1 -15 -8 -18 -17 -5 -12 -1 -14 17 -10 12 3 17 3 10
0 -7 -3 -9 -13 -6 -22 4 -15 3 -15 -7 -2 -9 13 -11 12 -8 -5 2 -11 11 -19 20
-19 10 1 14 -4 11 -12 -4 -10 -10 -11 -25 -3 -11 6 -22 8 -26 5 -3 -3 0 -6 7
-6 7 0 10 -4 6 -9 -3 -6 3 -14 12 -20 10 -6 13 -11 8 -11 -6 0 -15 4 -21 10
-5 5 -15 6 -24 0 -13 -8 -13 -11 -1 -22 11 -11 13 -11 6 1 -6 10 -4 12 4 6 8
-4 10 -17 6 -32 -3 -14 -2 -22 3 -19 6 3 15 -1 22 -10 10 -12 11 -17 1 -27
-10 -9 -11 -8 -6 8 4 16 3 15 -6 -3 -12 -22 -38 -26 -51 -7 -12 15 -9 27 4 19
7 -5 9 0 6 14 -3 12 -1 23 6 26 6 2 3 5 -6 5 -10 1 -18 -3 -18 -9 0 -5 -7 -10
-15 -10 -18 0 -20 -16 -2 -24 9 -5 9 -7 0 -12 -8 -4 -9 -13 -3 -30 7 -17 7
-23 0 -19 -6 3 -10 13 -10 21 0 8 -9 14 -20 14 -27 0 -36 -3 -32 -12 3 -11 -6
-10 -29 2 -24 13 -25 2 -1 -17 10 -9 11 -11 2 -7 -10 5 -9 0 4 -14 14 -17 16
-22 5 -22 -11 0 -11 -2 1 -11 13 -9 13 -10 -2 -6 -9 3 -18 2 -20 -3 -2 -4 -10
-1 -18 8 -13 14 -12 15 3 9 20 -7 21 1 4 24 -11 15 -17 15 -50 4 -58 -20 -89
-44 -83 -63 5 -13 3 -13 -9 2 -13 18 -16 18 -32 4 -10 -8 -26 -18 -35 -21 -25
-9 -22 -26 7 -39 13 -6 22 -15 19 -20 -3 -4 -12 -1 -20 7 -9 8 -22 15 -30 15
-8 0 -14 5 -14 11 0 5 -15 -1 -33 -15 -19 -14 -38 -23 -43 -18 -4 4 -3 0 4
-10 10 -13 10 -18 1 -24 -7 -4 -15 -2 -17 5 -3 8 -18 3 -50 -15 -26 -15 -49
-30 -52 -34 -3 -4 -31 -19 -63 -35 -32 -15 -63 -35 -70 -44 -7 -9 -21 -18 -32
-19 -10 -2 -30 -12 -43 -23 l-25 -19 27 0 c17 0 25 -4 20 -11 -3 -6 -19 -9
-34 -5 -20 3 -36 -1 -53 -14 l-25 -20 -51 50 c-28 27 -54 50 -57 50 -6 0 -74
68 -74 75 0 1 9 5 20 8 11 3 18 1 14 -4 -3 -5 0 -9 5 -9 6 0 11 8 11 18 0 14
2 15 10 2 5 -8 12 -11 16 -7 4 3 1 14 -7 24 -12 15 -12 16 4 10 9 -3 17 -2 17
3 0 6 -10 10 -22 10 -22 1 -22 1 -4 11 15 9 16 13 5 20 -9 6 -4 7 15 3 21 -5
27 -4 22 5 -5 7 2 11 19 11 30 0 25 17 -9 30 -18 8 -17 9 11 9 17 1 40 4 50 7
16 6 16 5 -2 -10 -19 -17 -19 -17 5 -4 14 7 28 11 31 10 4 -1 5 7 2 17 -3 10
0 22 6 25 6 4 11 0 11 -8 0 -9 5 -16 11 -16 5 0 8 4 4 9 -6 11 46 51 67 51 10
0 9 -3 -2 -10 -8 -5 -10 -10 -4 -10 5 0 16 6 23 13 12 12 16 14 52 16 11 0 18
4 16 9 -3 4 15 7 38 6 24 0 42 3 39 7 -2 4 -1 9 3 12 5 2 1 2 -7 0 -36 -11
-50 -11 -50 -2 0 5 9 9 19 9 11 0 27 7 36 16 13 14 21 15 42 5 20 -9 28 -9 33
-1 4 7 10 11 14 10 4 -1 10 0 14 3 4 2 2 2 -5 1 -6 -2 -17 3 -23 11 -8 10 -7
13 7 11 14 -1 18 6 18 29 0 28 3 30 37 30 20 1 34 -3 31 -8 -3 -5 3 -7 13 -5
19 3 54 39 54 55 0 4 10 13 23 18 12 6 21 16 20 22 -1 6 9 23 22 37 14 15 25
31 25 36 0 5 13 7 29 5 25 -3 31 1 40 26 5 16 13 29 16 29 3 0 3 -5 -1 -11 -4
-7 -1 -10 7 -7 8 3 22 1 31 -4 13 -6 16 -5 13 5 -4 8 2 13 13 13 18 0 25 -21
13 -41 -3 -6 2 -2 12 9 10 10 16 25 13 31 -2 7 0 18 5 26 5 9 9 10 9 2 0 -6 9
-11 20 -10 10 1 17 3 15 6 -5 4 24 41 32 41 3 0 11 -6 19 -14z m-2152 -21 c-4
-8 -10 -13 -15 -10 -4 3 -6 12 -3 20 4 8 10 13 15 10 4 -3 6 -12 3 -20z m2012
12 c4 -4 -5 -7 -20 -7 -15 0 -25 4 -22 9 7 10 31 9 42 -2z m274 -28 c0 -17 -4
-28 -10 -24 -5 3 -10 17 -10 31 0 13 5 24 10 24 6 0 10 -14 10 -31z m343 11
c19 -23 21 -30 8 -30 -5 0 -12 9 -16 19 -4 13 -12 18 -22 14 -11 -4 -14 -2 -9
5 10 17 19 15 39 -8z m-243 0 c0 -5 -5 -10 -11 -10 -5 0 -7 5 -4 10 3 6 8 10
11 10 2 0 4 -4 4 -10z m-196 -15 c3 -9 0 -15 -9 -15 -9 0 -12 6 -9 15 4 8 7
15 9 15 2 0 5 -7 9 -15z m-2157 -17 c-3 -8 -6 -5 -6 6 -1 11 2 17 5 13 3 -3 4
-12 1 -19z m2459 -49 c13 -10 56 0 48 12 -3 5 -1 9 5 9 6 0 18 -14 26 -30 12
-23 13 -35 5 -48 -10 -15 -10 -15 -6 3 5 17 1 20 -30 21 -20 1 -40 8 -45 15
-8 13 -13 6 -10 -13 0 -4 -6 -5 -15 -1 -10 4 -12 9 -5 16 7 7 5 14 -7 24 -16
12 -15 13 3 6 11 -3 25 -10 31 -14z m-206 7 c0 -2 -7 -9 -15 -16 -13 -11 -14
-10 -9 4 5 14 24 23 24 12z m165 -24 c-3 -3 0 -11 7 -19 8 -10 7 -17 -7 -27
-10 -7 -15 -17 -12 -23 3 -5 -4 -9 -16 -9 -28 1 -62 63 -45 83 8 10 14 11 25
1 13 -11 13 -13 -1 -18 -11 -3 -13 -9 -6 -20 9 -13 11 -13 20 0 5 8 10 26 10
39 0 20 2 22 15 11 9 -7 13 -15 10 -18z m-185 -37 c-7 -8 -10 -26 -8 -40 3
-13 2 -22 -3 -19 -4 2 -12 -4 -18 -13 -10 -17 -10 -17 -11 0 0 9 5 17 11 17 6
0 9 6 6 13 -5 13 24 70 31 62 3 -3 -1 -11 -8 -20z m-2245 -77 c6 -22 4 -28 -8
-28 -9 0 -19 5 -22 10 -3 6 -1 10 4 10 14 0 14 32 1 48 -6 8 -5 8 4 0 8 -7 18
-25 21 -40z m2572 36 c-3 -3 -12 -4 -19 -1 -8 3 -5 6 6 6 11 1 17 -2 13 -5z
m-293 -28 c-1 -9 2 -16 7 -16 5 0 9 -5 9 -11 0 -8 -5 -7 -15 1 -9 7 -14 19
-11 26 3 7 1 15 -5 18 -5 2 -4 3 3 2 7 -2 12 -11 12 -20z m-2412 -43 c-5 -56
-18 -56 -15 -1 3 65 2 63 12 53 4 -6 6 -29 3 -52z m2468 48 c0 -5 -7 -11 -14
-14 -10 -4 -13 -1 -9 9 6 15 23 19 23 5z m63 -11 c-3 -12 -8 -19 -11 -16 -5 6
5 36 12 36 2 0 2 -9 -1 -20z m-2441 -23 c2 -12 9 -22 17 -22 8 0 16 -6 19 -14
3 -10 0 -11 -13 -3 -10 5 -25 7 -34 5 -12 -3 -16 4 -16 30 0 38 22 41 27 4z
m1788 29 c0 -2 -7 -7 -16 -10 -8 -3 -12 -2 -9 4 6 10 25 14 25 6z m1605 -6
c13 0 16 -3 8 -8 -6 -4 -33 -7 -60 -6 -73 2 -81 4 -58 14 11 5 36 7 55 5 19
-2 44 -4 55 -5z m-758 -22 c-3 -8 -6 -5 -6 6 -1 11 2 17 5 13 3 -3 4 -12 1
-19z m620 16 c-3 -3 -12 -4 -19 -1 -8 3 -5 6 6 6 11 1 17 -2 13 -5z m206 -1
c-7 -2 -21 -2 -30 0 -10 3 -4 5 12 5 17 0 24 -2 18 -5z m44 1 c-3 -3 -12 -4
-19 -1 -8 3 -5 6 6 6 11 1 17 -2 13 -5z m-3432 -14 c3 -5 1 -10 -4 -10 -6 0
-11 5 -11 10 0 6 2 10 4 10 3 0 8 -4 11 -10z m2615 -14 c0 -3 -4 -8 -10 -11
-5 -3 -10 -1 -10 4 0 6 5 11 10 11 6 0 10 -2 10 -4z m-3710 -28 c0 -5 -9 -4
-20 2 -11 6 -20 12 -20 14 0 2 9 2 20 -1 11 -3 20 -9 20 -15z m1022 -35 c17
-15 18 -15 18 0 0 23 17 21 23 -2 3 -14 1 -18 -10 -14 -12 5 -14 1 -9 -18 6
-22 6 -23 -7 -6 -15 18 -33 24 -22 7 3 -6 -1 -7 -9 -4 -18 7 -21 24 -5 24 8 0
8 5 -1 15 -17 20 -1 19 22 -2z m2694 -40 c-3 -7 -1 -15 4 -18 4 -3 11 1 13 7
3 7 6 9 6 3 1 -13 -17 -41 -23 -35 -2 3 -6 14 -8 25 -1 11 -6 22 -10 25 -4 3
-4 16 -1 30 l6 24 9 -24 c5 -13 7 -29 4 -37z m-2758 5 c12 -15 11 -17 -8 -13
-19 4 -21 1 -16 -20 3 -13 2 -26 -3 -29 -9 -6 -23 83 -14 97 4 7 16 -2 41 -35z
m142 32 c0 -5 -4 -10 -10 -10 -5 0 -10 5 -10 10 0 6 5 10 10 10 6 0 10 -4 10
-10z m2520 6 c0 -3 -4 -8 -10 -11 -5 -3 -10 -1 -10 4 0 6 5 11 10 11 6 0 10
-2 10 -4z m-3650 -33 c0 -21 -3 -24 -9 -14 -5 8 -7 20 -4 28 8 21 13 15 13
-14z m5023 12 c-3 -9 -8 -14 -10 -11 -3 3 -2 9 2 15 9 16 15 13 8 -4z m-668
-5 c3 -5 1 -10 -4 -10 -6 0 -11 5 -11 10 0 6 2 10 4 10 3 0 8 -4 11 -10z
m-708 -22 c-3 -8 -6 -5 -6 6 -1 11 2 17 5 13 3 -3 4 -12 1 -19z m-3837 -9 c0
-5 -4 -9 -8 -9 -5 0 -9 7 -9 15 0 8 4 12 9 9 4 -3 8 -9 8 -15z m-245 -8 c-3
-2 1 -11 8 -19 9 -11 4 -11 -15 2 -33 22 -33 22 -8 22 10 0 17 -2 15 -5z m205
-16 c-7 -9 -15 -13 -17 -11 -7 7 7 26 19 26 6 0 6 -6 -2 -15z m3880 5 c0 -5
-5 -10 -11 -10 -5 0 -7 5 -4 10 3 6 8 10 11 10 2 0 4 -4 4 -10z m60 0 c0 -5
-2 -10 -4 -10 -3 0 -8 5 -11 10 -3 6 -1 10 4 10 6 0 11 -4 11 -10z m-2637 -25
c-3 -9 -8 -14 -10 -11 -3 3 -2 9 2 15 9 16 15 13 8 -4z m2052 5 c3 -5 1 -10
-4 -10 -6 0 -11 5 -11 10 0 6 2 10 4 10 3 0 8 -4 11 -10z m1919 -1 c-3 -6 0
-16 7 -21 12 -8 11 -9 -1 -5 -18 4 -27 37 -10 37 6 0 8 -5 4 -11z m-2050 -35
c9 -24 2 -26 -12 -4 -7 11 -8 20 -3 20 5 0 12 -7 15 -16z m576 6 c-8 -5 -19
-10 -25 -10 -5 0 -3 5 5 10 8 5 20 10 25 10 6 0 3 -5 -5 -10z m32 -15 c3 -14
1 -25 -3 -25 -5 0 -9 11 -9 25 0 14 2 25 4 25 2 0 6 -11 8 -25z m-2545 -7 c-3
-8 -6 -5 -6 6 -1 11 2 17 5 13 3 -3 4 -12 1 -19z m-1440 -8 c-1 -11 -5 -20 -9
-20 -11 0 -20 19 -13 30 11 17 24 11 22 -10z m1353 11 c0 -10 -26 -9 -36 2 -4
4 2 7 14 7 12 0 22 -4 22 -9z m2003 -16 c-7 -21 -12 -19 -10 4 0 11 5 18 9 15
4 -3 5 -11 1 -19z m737 15 c0 -5 -2 -10 -4 -10 -3 0 -8 5 -11 10 -3 6 -1 10 4
10 6 0 11 -4 11 -10z m110 -6 c0 -2 -7 -4 -15 -4 -8 0 -15 4 -15 10 0 5 7 7
15 4 8 -4 15 -8 15 -10z m-4030 -6 c0 -4 -5 -8 -11 -8 -5 0 -7 -4 -4 -10 3 -6
-1 -7 -9 -4 -9 3 -16 1 -16 -5 0 -6 -4 -11 -8 -11 -5 0 -9 7 -9 15 0 8 4 12 8
10 4 -3 9 1 12 8 6 15 37 19 37 5z m79 -9 c-16 -10 -23 -4 -14 10 3 6 11 8 17
5 6 -4 5 -9 -3 -15z m-176 -8 c-3 -10 0 -22 6 -25 6 -4 11 -12 11 -19 0 -6
-11 4 -25 23 -30 41 -30 40 -6 40 14 0 18 -5 14 -19z m497 9 c12 -8 12 -10 1
-10 -9 0 -10 -4 -5 -13 5 -7 2 -6 -6 3 -9 10 -22 19 -30 23 -11 4 -9 6 5 6 11
0 27 -4 35 -9z m3460 -31 c0 -4 -7 -6 -15 -3 -8 4 -15 10 -15 15 0 4 7 6 15 3
8 -4 15 -10 15 -15z m60 11 c0 -5 -5 -10 -11 -10 -5 0 -7 5 -4 10 3 6 8 10 11
10 2 0 4 -4 4 -10z m-2740 -42 c0 -26 -4 -38 -8 -30 -8 12 -4 72 4 72 2 0 4
-19 4 -42z m2634 27 c-7 -16 -24 -21 -24 -6 0 8 7 13 27 20 1 1 0 -6 -3 -14z
m-694 1 c0 -11 -19 -15 -25 -6 -3 5 1 10 9 10 9 0 16 -2 16 -4z m801 -27 c-12
-13 -21 -18 -21 -12 0 14 31 46 37 39 3 -3 -4 -15 -16 -27z m-3655 -4 c12 16
14 17 14 2 0 -9 -3 -18 -7 -18 -5 -1 -18 -3 -30 -4 -13 -1 -29 -7 -36 -14 -22
-17 -28 -1 -9 24 16 22 18 22 35 7 18 -16 20 -15 33 3z m3589 5 c4 -6 -1 -7
-10 -3 -10 3 -21 0 -26 -8 -7 -12 -10 -12 -21 0 -8 9 -9 11 -1 7 6 -3 14 -2
18 4 8 13 32 13 40 0z m-3995 -9 c0 -5 -10 -11 -22 -14 -22 -6 -22 -6 -4 8 23
17 26 18 26 6z m280 -2 c0 -5 6 -7 13 -3 6 4 9 3 4 -1 -4 -5 -18 -10 -30 -11
-12 -2 -16 0 -8 3 11 5 11 7 0 14 -11 7 -10 9 4 9 9 0 17 -5 17 -11z m3645
-19 c8 0 17 -4 20 -10 3 -6 -1 -7 -10 -4 -8 4 -21 1 -28 -5 -11 -8 -14 -7 -14
7 -1 9 1 24 4 32 5 12 7 12 10 -2 3 -10 11 -18 18 -18z m-4045 10 c0 -5 -4
-10 -10 -10 -5 0 -10 5 -10 10 0 6 5 10 10 10 6 0 10 -4 10 -10z m240 -11 c0
-10 -12 -11 -34 -3 -25 10 -19 22 9 16 14 -2 25 -8 25 -13z m1265 -24 c-8 -22
-14 -32 -15 -23 0 20 19 72 25 67 2 -3 -2 -23 -10 -44z m2360 27 c-3 -3 -11 0
-18 7 -9 10 -8 11 6 5 10 -3 15 -9 12 -12z m796 1 c13 -16 12 -17 -3 -4 -10 7
-18 15 -18 17 0 8 8 3 21 -13z m-4317 -14 c-3 -5 -10 -7 -15 -3 -5 3 -7 10 -3
15 3 5 10 7 15 3 5 -3 7 -10 3 -15z m3786 1 c0 -5 -4 -10 -10 -10 -5 0 -10 5
-10 10 0 6 5 10 10 10 6 0 10 -4 10 -10z m1320 -11 c0 -13 -27 -11 -36 3 -4 7
-3 8 4 4 7 -4 12 -2 12 4 0 6 5 8 10 5 6 -3 10 -10 10 -16z m-1610 -5 c0 -2
-7 -4 -15 -4 -8 0 -15 4 -15 10 0 5 7 7 15 4 8 -4 15 -8 15 -10z m397 -14
c-13 -22 -27 -26 -27 -10 0 6 7 13 15 16 8 4 12 11 8 17 -3 6 -1 7 5 3 9 -5 8
-12 -1 -26z m-2795 -2 c-7 -7 -12 -8 -12 -2 0 14 12 26 19 19 2 -3 -1 -11 -7
-17z m2282 7 c-4 -8 -7 -15 -9 -15 -2 0 -5 7 -9 15 -3 9 0 15 9 15 9 0 12 -6
9 -15z m86 -9 c7 -18 14 -23 29 -19 12 3 21 9 21 13 0 13 78 6 92 -8 9 -9 9
-12 -3 -12 -8 0 -20 5 -27 12 -9 9 -12 8 -12 -7 0 -17 -2 -18 -10 -5 -6 10
-10 11 -10 3 0 -8 -14 -13 -34 -13 -42 0 -68 9 -60 21 3 5 1 9 -5 9 -6 0 -8 7
-5 15 8 21 13 19 24 -9z m778 -1 c-3 -3 -9 2 -12 12 -6 14 -5 15 5 6 7 -7 10
-15 7 -18z m-4571 9 c-3 -3 -12 -4 -19 -1 -8 3 -5 6 6 6 11 1 17 -2 13 -5z
m331 -18 c5 -22 -28 -47 -47 -36 -8 4 -16 15 -17 23 -2 13 3 14 23 6 23 -8 25
-7 20 11 -3 14 -1 20 6 17 7 -2 14 -11 15 -21z m1179 2 c-3 -8 -6 -5 -6 6 -1
11 2 17 5 13 3 -3 4 -12 1 -19z m1064 9 c-1 -12 -15 -9 -19 4 -3 6 1 10 8 8 6
-3 11 -8 11 -12z m1539 -5 c0 -12 -3 -12 -15 -2 -9 7 -18 10 -22 6 -13 -13
-11 -85 3 -97 19 -15 18 -29 -2 -29 -8 0 -12 5 -9 10 3 6 0 12 -7 15 -16 6
-12 96 5 107 18 11 47 5 47 -10z m498 -7 c-3 -3 -9 2 -12 12 -6 14 -5 15 5 6
7 -7 10 -15 7 -18z m-4428 5 c0 -5 -5 -10 -11 -10 -5 0 -7 5 -4 10 3 6 8 10
11 10 2 0 4 -4 4 -10z m240 1 c0 -6 -9 -9 -19 -8 -11 0 -17 5 -15 9 7 11 34
10 34 -1z m361 -14 c-10 -9 -11 -8 -5 6 3 10 9 15 12 12 3 -3 0 -11 -7 -18z
m3242 4 c-4 -3 -11 -10 -15 -15 -5 -5 -8 0 -8 12 0 15 4 20 16 15 9 -3 12 -9
7 -12z m141 4 c3 -8 1 -15 -4 -15 -6 0 -10 7 -10 15 0 8 2 15 4 15 2 0 6 -7
10 -15z m-3811 -37 c-2 -5 -10 -8 -16 -7 -9 0 -9 2 -1 5 7 3 10 15 8 27 -4 21
-4 21 5 2 4 -11 7 -23 4 -27z m110 23 c4 -17 2 -18 -13 -8 -10 6 -16 15 -14
19 9 14 22 9 27 -11z m4143 -1 c8 0 14 -4 14 -10 0 -5 -8 -10 -18 -10 -11 0
-18 8 -19 23 0 12 1 16 4 10 3 -7 11 -13 19 -13z m104 6 c21 -9 28 -16 20 -21
-6 -4 -16 -3 -22 3 -6 6 -16 9 -22 8 -6 -2 -7 -1 -2 2 4 2 2 8 -5 13 -21 13
-5 11 31 -5z m-4166 -11 c-4 -8 -1 -15 6 -15 9 0 10 -3 1 -13 -6 -8 -8 -17 -5
-20 4 -3 -7 -1 -24 5 -17 7 -28 16 -25 20 2 5 12 3 21 -4 10 -7 14 -9 10 -4
-4 5 -3 17 3 27 12 23 21 25 13 4z m-452 -25 c6 0 8 -3 5 -6 -10 -11 -38 17
-30 30 5 7 9 5 11 -6 2 -10 8 -18 14 -18z m1338 -8 c0 -21 3 -41 6 -45 3 -3 7
-40 8 -81 2 -62 0 -73 -11 -65 -15 13 -17 23 -3 14 12 -8 4 38 -13 70 -7 13
-6 20 2 23 6 2 9 13 7 25 -14 68 -16 97 -6 97 5 0 10 -17 10 -38z m2285 27
c-4 -6 1 -16 10 -23 16 -12 16 -13 -6 -10 -13 1 -28 3 -32 3 -11 1 12 41 24
41 6 0 7 -5 4 -11z m497 -19 c3 -17 1 -33 -4 -36 -4 -3 -8 11 -8 30 0 44 6 47
12 6z m45 8 c-3 -8 -6 -5 -6 6 -1 11 2 17 5 13 3 -3 4 -12 1 -19z m533 -4 c0
-3 -5 -2 -10 1 -6 4 -17 2 -25 -5 -11 -9 -12 -7 -8 9 4 17 9 19 24 10 10 -5
19 -12 19 -15z m-4766 1 c-4 -8 -1 -15 6 -15 7 0 6 -6 -4 -16 -14 -14 -18 -13
-38 7 -13 12 -18 19 -12 16 6 -4 20 0 30 8 24 18 25 18 18 0z m3881 5 c-3 -5
-12 -10 -18 -10 -7 0 -6 4 3 10 19 12 23 12 15 0z m111 -21 c19 -22 19 -22 -3
-10 -13 6 -23 16 -23 21 0 15 5 12 26 -11z m-351 -12 c7 -7 6 -8 -1 -4 -13 7
-27 -19 -19 -33 3 -4 -1 -13 -9 -19 -10 -9 -15 -8 -20 4 -3 9 -2 13 4 10 6 -3
10 -2 10 4 0 5 -8 12 -17 14 -14 4 -12 5 5 6 26 1 29 16 5 31 -15 9 -14 10 7
4 14 -3 30 -11 35 -17z m115 13 c0 -5 -2 -10 -4 -10 -3 0 -8 5 -11 10 -3 6 -1
10 4 10 6 0 11 -4 11 -10z m1185 -1 c11 -17 -1 -21 -15 -4 -8 9 -8 15 -2 15 6
0 14 -5 17 -11z m-1017 -34 c1 -37 -8 -44 -28 -20 -7 8 -16 13 -20 10 -4 -3
-13 2 -20 10 -9 11 -8 14 9 12 12 -1 21 -4 21 -8 0 -4 8 -10 18 -14 13 -5 14
-3 5 6 -9 9 -9 15 0 25 7 7 12 13 13 14 0 0 1 -16 2 -35z m1672 16 c0 -4 -6
-8 -14 -8 -8 0 -12 6 -9 14 5 13 23 9 23 -6z m-5550 -12 c0 -5 -8 -9 -17 -8
-11 0 -13 3 -5 6 6 2 9 10 6 15 -4 7 -2 8 4 4 7 -4 12 -11 12 -17z m4630 11
c0 -5 -4 -10 -10 -10 -5 0 -10 5 -10 10 0 6 5 10 10 10 6 0 10 -4 10 -10z
m-4576 -8 c3 -5 -1 -9 -9 -9 -8 0 -12 4 -9 9 3 4 7 8 9 8 2 0 6 -4 9 -8z m485
-1 c2 0 -6 -9 -17 -20 -12 -10 -22 -30 -22 -44 0 -14 -5 -29 -10 -32 -7 -4 -9
3 -6 19 3 16 0 26 -7 27 -9 0 -8 2 1 6 6 2 9 9 6 14 -15 25 17 42 55 30z
m3254 -5 c4 -10 1 -13 -8 -9 -8 3 -12 9 -9 14 7 12 11 11 17 -5z m152 4 c3 -5
1 -10 -4 -10 -6 0 -11 5 -11 10 0 6 2 10 4 10 3 0 8 -4 11 -10z m1410 0 c3 -6
-4 -10 -17 -10 -18 0 -20 2 -8 10 19 12 18 12 25 0z m-2456 -18 c-7 -3 -17
-10 -21 -16 -5 -7 -8 -5 -8 5 0 22 9 29 28 21 13 -5 14 -6 1 -10z m-3024 -2
c3 -5 1 -10 -4 -10 -6 0 -11 5 -11 10 0 6 2 10 4 10 3 0 8 -4 11 -10z m1805 0
c0 -5 -5 -10 -11 -10 -5 0 -7 5 -4 10 3 6 8 10 11 10 2 0 4 -4 4 -10z m2515 1
c3 -5 1 -12 -5 -16 -5 -3 -10 1 -10 9 0 18 6 21 15 7z m-705 -10 c0 -6 -5 -13
-10 -16 -6 -4 -8 -11 -5 -16 4 -5 -2 -9 -11 -9 -16 0 -16 1 -1 18 10 10 14 22
10 25 -3 4 -1 7 5 7 7 0 12 -4 12 -9z m150 -12 c0 -11 -4 -18 -10 -14 -5 3 -7
12 -3 20 7 21 13 19 13 -6z m510 6 c0 -8 -4 -15 -10 -15 -5 0 -10 7 -10 15 0
8 5 15 10 15 6 0 10 -7 10 -15z m-2444 -11 c-4 -12 -2 -15 9 -10 13 4 14 2 5
-14 -6 -11 -8 -25 -5 -30 3 -5 1 -11 -5 -15 -5 -3 -10 -3 -11 2 0 4 -2 19 -3
32 -2 14 -9 27 -16 29 -9 3 -9 6 1 13 22 14 32 11 25 -7z m1229 -5 c-7 -10
-35 -1 -35 11 0 5 9 6 20 3 11 -3 17 -9 15 -14z m590 11 c3 -5 2 -10 -4 -10
-5 0 -13 5 -16 10 -3 6 -2 10 4 10 5 0 13 -4 16 -10z m275 -5 c-15 -18 -7 -19
19 -4 11 8 24 8 34 3 14 -8 14 -12 -3 -34 l-19 -25 -27 26 c-25 25 -26 49 -2
49 7 0 6 -6 -2 -15z m1646 -21 c3 -25 2 -25 -11 -8 -7 11 -9 21 -4 22 5 2 6 9
2 15 -3 7 -2 9 2 5 5 -5 10 -20 11 -34z m-3789 20 c-3 -3 -12 -4 -19 -1 -8 3
-5 6 6 6 11 1 17 -2 13 -5z m1198 -4 c3 -5 2 -10 -4 -10 -5 0 -13 5 -16 10 -3
6 -2 10 4 10 5 0 13 -4 16 -10z m1805 -12 c0 -5 -9 -4 -20 2 -11 6 -20 12 -20
14 0 2 9 2 20 -1 11 -3 20 -9 20 -15z m1045 12 c3 -6 -1 -7 -9 -4 -18 7 -21
14 -7 14 6 0 13 -4 16 -10z m-5125 -16 c0 4 9 2 20 -4 22 -12 24 -18 10 -40
-9 -13 -11 -13 -19 -1 -5 8 -7 20 -4 28 3 8 2 13 -3 12 -20 -3 -34 2 -34 12 0
8 5 8 15 -1 8 -7 15 -9 15 -6z m193 1 c-3 -9 -8 -14 -10 -11 -3 3 -2 9 2 15 9
16 15 13 8 -4z m2942 5 c3 -6 -1 -7 -9 -4 -18 7 -21 14 -7 14 6 0 13 -4 16
-10z m1021 -2 c3 -4 -1 -5 -10 -4 -8 1 -18 5 -22 8 -3 4 1 5 10 4 8 -1 18 -5
22 -8z m129 -26 c-14 -15 -25 -30 -25 -34 0 -12 -14 -9 -36 7 -18 13 -18 14 5
8 17 -4 22 -3 17 5 -5 8 0 12 13 12 19 0 26 10 22 32 0 4 6 5 14 2 11 -5 9
-11 -10 -32z m519 23 c11 -8 15 -15 9 -15 -19 0 -43 12 -43 21 0 13 12 11 34
-6z m114 -3 c10 -10 24 -16 30 -14 7 2 12 -1 12 -7 0 -5 -10 -8 -22 -5 -13 3
-30 6 -38 8 -17 3 -27 36 -11 36 6 0 19 -8 29 -18z m-1498 -7 c0 -8 -4 -15
-10 -15 -5 0 -7 7 -4 15 4 8 8 15 10 15 2 0 4 -7 4 -15z m780 0 c0 -12 -19
-12 -23 0 -4 9 -1 12 9 8 7 -3 14 -7 14 -8z m-4322 -9 c-8 -6 -14 -17 -12 -24
1 -7 0 -8 -2 -3 -3 6 -13 7 -22 4 -14 -5 -13 -2 3 14 11 11 26 20 34 20 11 0
11 -2 -1 -11z m3134 -3 c20 -18 25 -49 7 -37 -9 5 -10 -1 -5 -20 7 -29 -10
-32 -31 -6 -17 21 -16 33 2 26 8 -3 15 -4 15 -2 0 3 3 11 6 20 3 9 1 16 -6 16
-6 0 -8 -4 -5 -10 3 -5 2 -10 -4 -10 -5 0 -9 9 -8 20 2 24 5 25 29 3z m202
-18 c-7 -18 -17 -20 -11 -2 2 6 -3 18 -12 25 -14 11 -13 12 6 2 14 -6 20 -16
17 -25z m-1164 5 c-6 -11 -13 -20 -16 -20 -2 0 0 9 6 20 6 11 13 20 16 20 2 0
0 -9 -6 -20z m857 13 c-10 -9 31 -35 43 -28 6 3 10 2 10 -3 0 -6 -7 -13 -16
-16 -14 -5 -14 -9 -3 -24 13 -15 12 -16 -3 -4 -10 8 -16 19 -15 25 1 7 -8 11
-23 10 -21 -2 -22 -1 -6 5 14 6 16 11 8 16 -12 7 -8 26 5 26 4 0 3 -3 0 -7z
m705 -25 c-9 -9 -12 -7 -12 12 0 19 3 21 12 12 9 -9 9 -15 0 -24z m-3631 -21
c-13 -13 -15 1 -4 30 7 17 8 17 11 -1 2 -10 -1 -23 -7 -29z m2849 32 c0 -5 6
-7 13 -3 6 4 9 4 5 -1 -5 -5 1 -14 12 -22 25 -18 26 -33 1 -33 -11 0 -21 -3
-24 -7 -2 -5 -2 -2 -1 5 5 17 -6 42 -18 42 -6 0 -5 -6 2 -15 9 -10 9 -15 1
-15 -6 0 -11 5 -11 10 0 6 -13 10 -30 10 -16 0 -30 4 -30 8 0 4 15 8 33 8 20
0 31 4 30 12 -2 7 2 12 7 12 6 0 10 -5 10 -11z m2010 -10 c-6 -10 -18 -19 -28
-19 -15 -1 -15 -2 -2 -13 37 -29 8 -83 -35 -66 -17 7 -17 8 7 8 33 1 48 21 16
22 -17 1 -18 3 -6 6 16 4 16 6 3 20 -14 14 -14 17 2 28 10 7 22 11 28 7 5 -3
5 1 -2 9 -10 12 -8 15 8 16 16 2 17 -1 9 -18z m-4076 -1 c-3 -4 -9 -8 -15 -8
-5 0 -9 4 -9 8 0 5 7 9 15 9 8 0 12 -4 9 -9z m1896 -3 c11 -13 10 -14 -5 -9
-10 4 -16 3 -13 -2 3 -5 0 -15 -8 -21 -7 -8 -15 -9 -19 -3 -3 5 -13 7 -23 4
-14 -5 -14 -4 -2 4 8 6 17 9 22 6 4 -3 13 4 20 16 15 24 13 23 28 5z m1638 -1
c-4 -11 -28 -14 -28 -4 0 8 22 20 28 14 2 -1 2 -6 0 -10z m909 0 c-3 -3 -12
-4 -19 -1 -8 3 -5 6 6 6 11 1 17 -2 13 -5z m-2022 -14 c3 -5 2 -10 -4 -10 -5
0 -13 5 -16 10 -3 6 -2 10 4 10 5 0 13 -4 16 -10z m815 6 c0 -2 -7 -7 -16 -10
-8 -3 -12 -2 -9 4 6 10 25 14 25 6z m990 -12 c0 -8 5 -12 10 -9 6 3 10 4 10 1
0 -3 -14 -13 -31 -21 -25 -13 -28 -19 -18 -31 10 -12 9 -13 -6 -8 -15 6 -17 3
-13 -14 4 -12 2 -20 -3 -17 -5 3 -18 1 -30 -6 -20 -10 -21 -9 -15 16 4 16 3
24 -3 21 -5 -4 -12 -2 -15 3 -4 5 2 8 11 7 29 -5 44 16 26 37 -10 10 -12 17
-5 17 7 0 12 -4 12 -8 0 -5 7 -9 15 -9 8 0 15 4 15 9 0 4 7 8 16 8 8 0 12 5 9
10 -3 6 -1 10 4 10 6 0 11 -7 11 -16z m-1862 -11 c6 -19 -25 -16 -32 3 -4 11
-1 14 11 12 9 -2 18 -9 21 -15z m1006 1 c6 -15 4 -15 -11 -3 -10 7 -20 15 -22
16 -2 2 3 3 11 3 9 0 19 -7 22 -16z m286 12 c0 -2 -7 -7 -16 -10 -8 -3 -12 -2
-9 4 6 10 25 14 25 6z m-1993 -31 c6 -14 7 -27 2 -31 -5 -3 -9 0 -9 5 0 16
-21 9 -50 -16 -38 -35 -47 -32 -30 11 6 17 15 24 28 21 10 -2 25 1 33 6 11 7
11 9 1 9 -7 0 -10 5 -7 10 10 16 19 12 32 -15z m322 9 c5 3 15 -2 22 -12 13
-15 12 -16 -3 -3 -10 7 -18 9 -18 3 0 -5 -11 -12 -25 -14 -21 -4 -25 -1 -25
19 0 21 3 22 20 13 11 -6 24 -9 29 -6z m414 -12 c-18 -5 -27 3 -18 17 4 7 10
7 20 -2 11 -10 11 -13 -2 -15z m661 12 c3 -8 2 -12 -4 -9 -6 3 -10 10 -10 16
0 14 7 11 14 -7z m1371 6 c-4 -6 6 -11 22 -11 18 -1 22 -3 10 -6 -24 -6 -50 4
-42 17 3 5 8 10 11 10 3 0 2 -4 -1 -10z m-1818 -15 c0 -8 -4 -12 -9 -9 -4 3
-8 9 -8 15 0 5 4 9 8 9 5 0 9 -7 9 -15z m-1359 -4 c11 -7 11 -9 -1 -14 -16 -6
-27 0 -27 15 0 10 11 10 28 -1z m1408 1 c-3 -5 8 -16 24 -25 22 -13 27 -22 22
-40 l-7 -22 -3 23 c-2 12 -14 30 -28 38 -25 17 -32 34 -13 34 5 0 8 -4 5 -8z
m1744 -2 c0 -5 -4 -10 -10 -10 -5 0 -10 5 -10 10 0 6 5 10 10 10 6 0 10 -4 10
-10z m-4900 -7 c0 -5 -5 -15 -10 -23 -9 -13 -10 -13 -10 0 -1 12 -3 12 -14 -2
-7 -10 -16 -15 -19 -12 -7 8 25 42 41 43 6 1 12 -2 12 -6z m40 -12 c-13 -25
-30 -36 -30 -20 0 6 8 18 18 25 23 18 24 17 12 -5z m877 -3 c-3 -8 -6 -5 -6 6
-1 11 2 17 5 13 3 -3 4 -12 1 -19z m1376 -3 c8 -15 7 -17 -6 -12 -9 3 -19 2
-22 -2 -8 -13 -55 -19 -62 -8 -3 6 -1 7 5 3 7 -4 12 -3 12 2 0 5 9 12 21 15
12 3 18 10 15 15 -3 6 1 9 10 8 9 -1 21 -11 27 -21z m-1753 3 c0 -4 -9 -8 -20
-8 -11 0 -20 -5 -20 -12 0 -6 -2 -9 -5 -6 -3 3 -3 12 1 21 6 16 44 20 44 5z
m1495 -7 c-3 -6 -11 -8 -17 -5 -6 4 -5 9 3 15 16 10 23 4 14 -10z m755 10 c0
-6 -4 -13 -10 -16 -5 -3 -10 1 -10 9 0 9 5 16 10 16 6 0 10 -4 10 -9z m174 0
c3 -5 -1 -11 -9 -15 -9 -3 -15 0 -15 9 0 16 16 20 24 6z m-1814 -11 c0 -5 -2
-10 -4 -10 -3 0 -8 5 -11 10 -3 6 -1 10 4 10 6 0 11 -4 11 -10z m720 -11 c0
-5 -4 -9 -10 -9 -5 0 -10 7 -10 16 0 8 5 12 10 9 6 -3 10 -10 10 -16z m-277
-9 c-3 -11 -9 -17 -15 -14 -5 3 -4 12 3 20 16 19 18 18 12 -6z m187 16 c0 -2
-8 -10 -17 -17 -16 -13 -17 -12 -4 4 13 16 21 21 21 13z m1519 -23 c0 -25 -1
-26 -9 -8 -12 27 -12 35 0 35 6 0 10 -12 9 -27z m496 9 c-3 -3 -11 0 -18 7 -9
10 -8 11 6 5 10 -3 15 -9 12 -12z m940 8 c-3 -5 -12 -10 -18 -10 -7 0 -6 4 3
10 19 12 23 12 15 0z m-1355 -10 c0 -5 -5 -10 -11 -10 -5 0 -7 5 -4 10 3 6 8
10 11 10 2 0 4 -4 4 -10z m-2863 -22 c-3 -8 -6 -5 -6 6 -1 11 2 17 5 13 3 -3
4 -12 1 -19z m20 0 c-3 -8 -6 -5 -6 6 -1 11 2 17 5 13 3 -3 4 -12 1 -19z m605
7 c11 -14 10 -25 -3 -25 -5 0 -7 5 -3 11 4 8 -1 9 -17 5 -13 -3 -18 -3 -11 0
6 3 10 10 6 15 -7 13 19 7 28 -6z m730 -17 c9 2 19 -2 23 -9 5 -7 3 -10 -6 -7
-8 3 -24 1 -36 -3 -15 -6 -23 -5 -23 3 0 7 -15 9 -46 4 -40 -5 -45 -4 -34 9 7
8 28 15 46 15 20 0 34 5 34 13 1 6 6 3 13 -8 7 -12 19 -19 29 -17z m1298 23
c0 -5 -7 -12 -16 -15 -14 -5 -15 -4 -4 9 14 17 20 19 20 6z m290 5 c0 -2 -7
-7 -16 -10 -8 -3 -12 -2 -9 4 6 10 25 14 25 6z m360 -16 c0 -5 -5 -10 -11 -10
-5 0 -7 5 -4 10 3 6 8 10 11 10 2 0 4 -4 4 -10z m-1703 -36 c-26 -22 -37 -42
-17 -29 6 3 7 -1 3 -10 -3 -9 -9 -12 -12 -7 -5 8 -41 17 -108 26 -13 2 -29 9
-37 15 -8 7 -20 10 -26 6 -5 -3 -10 1 -10 10 0 12 9 14 45 11 47 -3 75 -16 37
-16 -12 0 -22 -4 -22 -10 0 -14 12 -12 38 5 15 11 33 14 57 9 42 -8 50 -7 51
6 3 20 4 21 16 14 8 -5 3 -15 -15 -30z m212 27 c14 -9 4 -19 -16 -15 -7 1 -21
2 -30 3 -16 2 -15 3 2 11 26 11 28 11 44 1z m181 -5 c-5 -5 -38 -10 -72 -11
-35 -2 -57 0 -50 2 6 3 10 8 8 11 -2 4 25 7 59 7 39 0 60 -4 55 -9z m170 5 c0
-10 -39 -11 -45 -2 -2 5 7 9 20 9 14 0 25 -3 25 -7z m570 -1 c0 -5 -5 -10 -11
-10 -5 0 -7 5 -4 10 3 6 8 10 11 10 2 0 4 -4 4 -10z m-3436 -15 c-4 -8 -8 -15
-10 -15 -2 0 -4 7 -4 15 0 8 4 15 10 15 5 0 7 -7 4 -15z m1906 5 c12 -7 10 -9
-8 -7 -12 0 -22 5 -22 9 0 11 12 10 30 -2z m1145 1 c3 -5 1 -12 -5 -16 -5 -3
-10 1 -10 9 0 18 6 21 15 7z m1062 3 c-3 -3 -12 -4 -19 -1 -8 3 -5 6 6 6 11 1
17 -2 13 -5z m-4031 -50 c1 -9 0 -13 -3 -10 -4 3 -12 1 -20 -5 -11 -9 -13 -7
-9 12 2 13 -2 31 -8 39 -8 10 -4 9 13 -3 14 -9 26 -24 27 -33z m634 35 c0 -5
5 -7 10 -4 6 3 10 1 10 -4 0 -13 -3 -13 -24 -5 -18 7 -22 24 -6 24 6 0 10 -5
10 -11z m4145 -18 c-1 -17 -7 -21 -27 -21 -9 0 -8 4 2 10 11 7 11 10 2 10 -7
0 -11 4 -8 8 9 15 32 9 31 -7z m85 15 c0 -2 -9 -6 -20 -9 -11 -3 -18 -1 -14 4
5 9 34 13 34 5z m-2608 -28 c-4 -16 -2 -19 8 -13 8 5 11 4 7 -3 -7 -10 -47 -5
-47 6 0 4 30 30 37 32 0 0 -1 -10 -5 -22z m98 -9 c0 -5 -11 -9 -25 -9 -25 0
-30 18 -10 32 10 7 35 -9 35 -23z m910 21 c0 -5 -4 -10 -10 -10 -5 0 -10 5
-10 10 0 6 5 10 10 10 6 0 10 -4 10 -10z m428 -2 c-2 -6 -11 -13 -19 -16 -12
-3 -12 -2 0 6 11 8 9 11 -10 15 -22 4 -22 4 4 6 18 0 27 -3 25 -11z m899 6
c-3 -3 -12 -4 -19 -1 -8 3 -5 6 6 6 11 1 17 -2 13 -5z m143 -14 c0 -19 -18
-19 -23 -1 -3 14 -1 18 9 14 8 -3 14 -9 14 -13z m-3015 -15 c-16 -14 -33 -25
-37 -25 -4 0 -5 -7 -1 -15 7 -19 -15 -17 -36 3 -11 11 -15 11 -22 0 -5 -7 -9
-10 -9 -6 0 4 -11 3 -25 -2 -19 -7 -23 -6 -18 6 3 8 8 13 10 10 3 -2 20 2 38
10 21 8 35 10 37 4 2 -6 19 1 38 14 45 32 64 33 25 1z m770 15 c-3 -5 -11 -10
-16 -10 -6 0 -7 5 -4 10 3 6 11 10 16 10 6 0 7 -4 4 -10z m95 1 c0 -5 -7 -11
-15 -15 -9 -3 -15 0 -15 9 0 8 7 15 15 15 8 0 15 -4 15 -9z m76 -4 c4 -4 -7
-7 -24 -7 -17 0 -33 4 -36 9 -7 10 50 8 60 -2z m139 3 c3 -5 -3 -10 -15 -10
-12 0 -18 5 -15 10 3 6 10 10 15 10 5 0 12 -4 15 -10z m1125 -11 c0 -6 -4 -7
-10 -4 -5 3 -10 11 -10 16 0 6 5 7 10 4 6 -3 10 -11 10 -16z m-3270 -11 c0
-17 -2 -18 -15 -4 -8 8 -15 16 -15 19 0 2 7 4 15 4 8 0 15 -9 15 -19z m2270
12 c0 -5 -2 -10 -4 -10 -3 0 -8 5 -11 10 -3 6 -1 10 4 10 6 0 11 -4 11 -10z
m410 0 c0 -5 -2 -10 -4 -10 -3 0 -8 5 -11 10 -3 6 -1 10 4 10 6 0 11 -4 11
-10z m769 3 c-3 -21 3 -32 19 -35 12 -3 10 -6 -9 -9 -22 -5 -26 -3 -21 14 3
14 1 18 -6 13 -7 -4 -12 -3 -12 3 0 8 9 14 28 20 1 1 1 -2 1 -6z m45 -9 c5
-14 4 -15 -9 -4 -17 14 -19 20 -6 20 5 0 12 -7 15 -16z m-274 -31 c8 -10 10
-15 6 -11 -5 4 -15 3 -22 -3 -11 -9 -16 -5 -24 16 -5 14 -10 28 -10 31 0 9 37
-15 50 -33z m15 27 c3 -6 -1 -7 -9 -4 -18 7 -21 14 -7 14 6 0 13 -4 16 -10z
m90 0 c23 -9 25 -13 15 -25 -7 -8 -17 -15 -22 -15 -6 0 -5 7 2 15 10 13 9 15
-8 15 -12 0 -24 5 -27 10 -8 13 7 13 40 0z m-3790 -10 c3 -5 1 -10 -4 -10 -6
0 -11 5 -11 10 0 6 2 10 4 10 3 0 8 -4 11 -10z m1757 1 c7 11 11 11 15 2 8
-21 4 -26 -24 -29 -16 -1 -23 0 -16 3 7 2 11 10 9 16 -1 7 -1 8 2 3 2 -4 9 -2
14 5z m1493 -1 c-3 -5 -12 -10 -18 -10 -7 0 -6 4 3 10 19 12 23 12 15 0z
m1460 0 c-3 -5 -12 -10 -18 -10 -7 0 -6 4 3 10 19 12 23 12 15 0z m-5285 -21
c0 -6 -4 -7 -10 -4 -5 3 -10 11 -10 16 0 6 5 7 10 4 6 -3 10 -11 10 -16z m520
6 c-7 -9 -15 -13 -17 -11 -7 7 7 26 19 26 6 0 6 -6 -2 -15z m1710 5 c29 15 48
-1 24 -21 -16 -13 -17 -12 -10 5 6 19 6 19 -11 4 -15 -14 -21 -14 -35 -4 -10
7 -15 16 -11 20 4 3 10 1 14 -5 5 -8 12 -8 29 1z m185 -8 c-12 -12 -35 -10
-35 3 0 8 7 11 20 8 12 -3 18 -8 15 -11z m2635 7 c0 -5 5 -7 10 -4 18 11 11
-1 -12 -21 -13 -11 -18 -13 -11 -3 10 12 10 18 1 27 -9 9 -9 12 0 12 7 0 12
-5 12 -11z m100 -1 c0 -5 7 -8 15 -5 8 4 17 2 20 -3 4 -6 -9 -9 -29 -8 -38 3
-57 23 -25 25 10 1 19 -3 19 -9z m-2690 -18 c12 -7 10 -9 -8 -7 -12 0 -22 5
-22 9 0 11 12 10 30 -2z m586 -18 c-4 -3 -14 2 -24 12 -16 18 -16 18 6 6 13
-6 21 -14 18 -18z m1099 17 c11 -16 1 -19 -13 -3 -7 8 -8 14 -3 14 5 0 13 -5
16 -11z m1087 4 c-6 -2 -9 -10 -6 -15 4 -7 2 -8 -4 -4 -18 11 -14 26 6 25 10
0 12 -3 4 -6z m-2262 -7 c0 -3 -4 -8 -10 -11 -5 -3 -10 -1 -10 4 0 6 5 11 10
11 6 0 10 -2 10 -4z m730 -6 c0 -5 -2 -10 -4 -10 -3 0 -8 5 -11 10 -3 6 -1 10
4 10 6 0 11 -4 11 -10z m140 -6 c0 -2 -9 -4 -20 -4 -11 0 -20 4 -20 9 0 5 9 7
20 4 11 -3 20 -7 20 -9z"/>
<path d="M3576 4808 c3 -4 9 -8 15 -8 5 0 9 4 9 8 0 5 -7 9 -15 9 -8 0 -12 -4
-9 -9z"/>
<path d="M2110 4540 c0 -5 5 -10 11 -10 5 0 7 5 4 10 -3 6 -8 10 -11 10 -2 0
-4 -4 -4 -10z"/>
<path d="M2057 4423 c-10 -9 -9 -41 2 -47 4 -3 8 8 7 24 -1 17 -1 30 -2 30 0
0 -4 -3 -7 -7z"/>
<path d="M1945 4170 c-3 -6 1 -7 9 -4 18 7 21 14 7 14 -6 0 -13 -4 -16 -10z"/>
<path d="M2044 4155 c-4 -8 -11 -12 -17 -8 -6 3 -7 1 -3 -5 10 -16 14 -15 26
8 6 11 8 20 5 20 -3 0 -8 -7 -11 -15z"/>
<path d="M1980 4085 c0 -10 8 -14 22 -12 32 5 35 27 4 27 -16 0 -26 -6 -26
-15z"/>
<path d="M2060 4050 c-8 -5 -10 -10 -5 -10 6 0 17 5 25 10 8 5 11 10 5 10 -5
0 -17 -5 -25 -10z"/>
<path d="M2030 4030 c8 -5 22 -9 30 -9 10 0 8 3 -5 9 -27 12 -43 12 -25 0z"/>
<path d="M2035 3870 c3 -5 8 -10 11 -10 2 0 4 5 4 10 0 6 -5 10 -11 10 -5 0
-7 -4 -4 -10z"/>
<path d="M4082 3826 c7 -8 15 -12 17 -11 5 6 -10 25 -20 25 -5 0 -4 -6 3 -14z"/>
<path d="M3497 3669 c7 -7 15 -10 18 -7 3 3 -2 9 -12 12 -14 6 -15 5 -6 -5z"/>
<path d="M3625 3671 c-3 -5 -1 -12 5 -16 12 -7 30 2 30 16 0 12 -27 12 -35 0z"/>
<path d="M3546 3655 c5 -12 4 -16 -4 -11 -6 3 -13 2 -17 -4 -4 -6 -14 -4 -29
5 -19 13 -25 13 -44 -1 -13 -9 -31 -13 -45 -9 -17 5 -19 4 -7 -4 18 -13 19
-13 -50 -15 -30 -2 -63 1 -72 6 -14 7 -18 4 -18 -12 0 -15 -7 -20 -25 -20 -19
0 -23 -4 -18 -17 4 -10 2 -14 -4 -10 -6 4 -14 1 -16 -5 -3 -8 -6 -6 -6 5 -1
18 -21 25 -21 7 0 -13 -32 -9 -42 5 -5 6 -8 4 -8 -5 0 -8 -14 -27 -32 -41 -28
-25 -30 -29 -15 -43 9 -9 13 -25 10 -38 -3 -15 -2 -19 4 -11 6 9 13 3 22 -22
7 -19 10 -39 6 -44 -3 -5 0 -13 6 -17 8 -4 7 -9 -2 -15 -19 -11 -11 -16 60
-35 46 -11 66 -13 74 -5 17 17 37 13 30 -6 -4 -11 -3 -14 5 -9 16 9 15 -7 0
-22 -20 -20 3 -31 72 -37 50 -4 61 -3 47 6 -10 6 -29 8 -43 5 -20 -5 -24 -3
-24 15 0 19 2 20 17 8 9 -8 14 -9 10 -2 -7 11 28 30 47 24 5 -1 12 3 16 10 5
7 13 -2 21 -24 15 -43 39 -54 127 -56 70 -3 88 6 97 50 8 37 25 37 65 -1 l32
-30 -26 -21 c-31 -25 -35 -49 -6 -42 14 4 20 0 20 -12 0 -12 -5 -15 -16 -11
-11 4 -15 2 -11 -7 3 -9 -12 -12 -62 -12 -47 0 -65 4 -63 13 1 6 -5 12 -14 12
-8 0 -12 -4 -9 -10 3 -5 -1 -10 -9 -10 -9 0 -13 6 -10 15 4 10 0 13 -18 10
-12 -3 -24 -9 -26 -14 -2 -7 -13 -6 -29 0 -14 5 -27 8 -30 6 -2 -2 17 -12 42
-21 45 -18 65 -43 23 -31 -18 6 -21 5 -11 -5 6 -7 25 -13 41 -14 17 -1 28 -4
26 -7 -7 -12 59 -19 72 -8 11 9 14 8 14 0 0 -8 16 -11 44 -10 25 2 43 6 40 11
-3 5 -9 6 -14 3 -5 -3 -11 -1 -15 5 -4 6 11 10 37 11 24 1 48 2 53 4 6 1 16 3
23 3 7 1 11 6 7 12 -3 5 -13 7 -23 4 -14 -5 -14 -4 -2 4 8 6 17 9 21 7 3 -3
19 8 35 22 16 15 32 26 37 25 4 -1 8 4 8 10 6 70 5 78 -12 83 -9 3 -20 13 -24
22 -5 15 -4 15 14 -1 18 -17 21 -17 48 0 15 10 32 23 36 29 5 5 5 0 2 -13 -6
-21 -5 -22 14 -10 12 7 21 18 21 25 0 19 50 29 61 12 7 -11 9 -9 9 8 0 17 -4
20 -22 16 l-23 -6 22 20 c24 22 21 33 -10 33 -14 0 -18 5 -14 20 3 10 0 21 -7
24 -6 2 -1 5 12 5 26 1 27 3 6 42 -8 17 -13 33 -10 37 3 3 6 0 6 -6 0 -7 5
-12 10 -12 7 0 7 6 1 18 -11 21 7 51 27 44 7 -2 20 -1 29 2 14 6 11 12 -16 36
-18 17 -34 30 -37 30 -8 0 -4 -9 12 -24 14 -15 14 -18 -8 -36 -26 -21 -34 -17
-66 40 -14 26 -25 34 -40 32 -12 -2 -22 1 -22 7 0 6 -7 8 -15 4 -9 -3 -13 -8
-10 -11 2 -3 -4 -11 -15 -19 -21 -15 -51 -4 -77 27 -7 8 -13 11 -13 5 0 -5 -5
-3 -10 5 -8 12 -10 9 -8 -10 2 -14 10 -30 18 -37 8 -7 10 -13 5 -13 -6 0 -16
5 -22 11 -6 6 -17 12 -24 13 -70 14 -90 20 -95 28 -4 5 -11 5 -18 -1 -8 -7
-24 -7 -44 -2 -17 5 -33 7 -36 4 -3 -3 -12 0 -21 7 -13 11 -14 10 -9 -5z m119
-45 c17 -11 26 -20 20 -20 -5 0 -23 9 -40 20 -16 11 -25 20 -20 20 6 0 24 -9
40 -20z m150 -30 c17 -19 17 -19 -9 -7 -14 7 -26 15 -26 20 0 13 17 7 35 -13z
m-670 -30 c-3 -5 -12 -10 -18 -10 -7 0 -6 4 3 10 19 12 23 12 15 0z m710 0 c3
-5 -1 -10 -10 -10 -9 0 -13 5 -10 10 3 6 8 10 10 10 2 0 7 -4 10 -10z m-138
-76 c13 -4 20 -10 18 -15 -3 -4 4 -7 15 -6 11 1 20 4 20 7 0 4 7 7 14 7 8 0
14 -3 13 -6 -1 -3 5 -17 12 -29 17 -31 7 -38 -32 -24 -17 6 -75 14 -127 18
-52 3 -99 10 -104 14 -10 10 1 30 15 30 6 0 7 -6 3 -12 -6 -10 -4 -10 8 0 9 8
34 11 62 9 25 -2 46 0 46 5 0 9 7 10 37 2z m-63 -64 c38 -6 74 -14 80 -19 6
-5 26 -12 44 -16 17 -3 32 -10 32 -14 0 -4 11 -14 25 -21 14 -7 25 -20 25 -29
0 -13 -2 -13 -9 -3 -5 8 -26 15 -47 17 -22 1 -52 8 -69 15 -16 7 -37 14 -45
16 -8 1 -41 8 -72 15 -32 6 -71 9 -87 6 -17 -4 -33 -2 -36 3 -3 6 2 10 12 10
15 0 15 2 4 9 -11 7 -6 11 20 14 19 2 39 4 44 5 6 1 41 -3 79 -8z m416 -34 c0
-3 -4 -8 -10 -11 -5 -3 -10 -1 -10 4 0 6 5 11 10 11 6 0 10 -2 10 -4z m-35
-35 c-3 -6 -11 -11 -16 -11 -5 0 -4 6 3 14 14 16 24 13 13 -3z m-455 -12 c0
-5 -7 -9 -15 -9 -15 0 -20 12 -9 23 8 8 24 -1 24 -14z"/>
<path d="M3768 3338 c5 -5 16 -8 23 -6 8 3 3 7 -10 11 -17 4 -21 3 -13 -5z"/>
<path d="M4027 3664 c-3 -5 1 -15 9 -22 16 -14 18 -5 5 17 -5 7 -11 9 -14 5z"/>
<path d="M3745 3640 c3 -5 8 -10 11 -10 2 0 4 5 4 10 0 6 -5 10 -11 10 -5 0
-7 -4 -4 -10z"/>
<path d="M2666 3607 c3 -10 9 -15 12 -12 3 3 0 11 -7 18 -10 9 -11 8 -5 -6z"/>
<path d="M4042 3595 c0 -16 2 -22 5 -12 2 9 2 23 0 30 -3 6 -5 -1 -5 -18z"/>
<path d="M4170 3550 c0 -5 5 -10 11 -10 5 0 7 5 4 10 -3 6 -8 10 -11 10 -2 0
-4 -4 -4 -10z"/>
<path d="M4090 3431 c0 -5 -8 -12 -17 -14 -17 -4 -17 -5 0 -6 9 0 17 -5 17
-11 0 -5 8 -2 18 8 12 11 14 20 8 24 -15 10 -26 10 -26 -1z"/>
<path d="M3160 3290 c8 -5 20 -10 25 -10 6 0 3 5 -5 10 -8 5 -19 10 -25 10 -5
0 -3 -5 5 -10z"/>
<path d="M3485 3160 c3 -5 8 -10 11 -10 2 0 4 5 4 10 0 6 -5 10 -11 10 -5 0
-7 -4 -4 -10z"/>
<path d="M4160 2869 c0 -19 4 -41 9 -48 6 -10 8 1 4 30 -7 55 -13 63 -13 18z"/>
<path d="M2638 2843 c6 -2 18 -2 25 0 6 3 1 5 -13 5 -14 0 -19 -2 -12 -5z"/>
<path d="M4163 2750 c0 -30 2 -43 4 -27 2 15 2 39 0 55 -2 15 -4 2 -4 -28z"/>
<path d="M2680 2660 c0 -11 4 -20 9 -20 5 0 7 9 4 20 -3 11 -7 20 -9 20 -2 0
-4 -9 -4 -20z"/>
<path d="M4161 2664 c0 -11 3 -14 6 -6 3 7 2 16 -1 19 -3 4 -6 -2 -5 -13z"/>
<path d="M4145 2630 c-3 -5 3 -10 15 -10 12 0 18 5 15 10 -3 6 -10 10 -15 10
-5 0 -12 -4 -15 -10z"/>
<path d="M4157 2594 c4 -11 2 -15 -4 -11 -6 4 -13 0 -17 -8 -3 -8 0 -17 6 -21
7 -4 6 -9 -3 -14 -10 -7 -10 -11 0 -24 11 -13 11 -16 0 -16 -9 0 -10 -3 -3 -8
6 -4 14 -14 18 -22 3 -8 4 -5 2 8 -2 12 -1 22 2 22 12 0 14 98 3 105 -7 4 -8
-1 -4 -11z"/>
<path d="M3538 2528 c3 -14 0 -17 -12 -12 -32 12 -16 -21 19 -40 19 -11 47
-35 62 -55 15 -20 37 -46 49 -57 13 -12 20 -25 17 -28 -4 -3 -1 -6 5 -6 6 0 9
-11 6 -26 -3 -14 -1 -23 4 -21 4 3 6 -10 4 -28 -2 -20 -11 -36 -21 -39 -9 -3
1 -3 22 0 33 4 37 3 38 -18 1 -13 1 -26 0 -30 0 -5 3 -8 8 -8 5 0 15 20 22 44
9 32 17 42 28 38 9 -3 12 -1 7 6 -4 8 0 12 11 12 15 0 16 2 3 10 -12 7 -8 10
15 11 17 0 24 3 16 6 -17 7 -61 56 -55 62 2 2 10 -2 19 -9 13 -11 14 -10 9 4
-3 9 -10 16 -16 16 -14 0 -38 27 -31 34 4 3 -3 6 -14 6 -12 0 -24 7 -27 16 -3
8 -10 12 -16 9 -6 -3 -7 1 -4 9 4 11 0 16 -10 16 -9 0 -15 5 -13 11 1 6 -7 13
-18 15 -11 1 -25 10 -31 18 -6 9 -18 16 -27 16 -8 0 -17 6 -20 14 -3 7 -16 15
-30 18 -20 4 -23 1 -19 -14z"/>
<path d="M2290 2490 c-9 -6 -10 -10 -3 -10 6 0 15 5 18 10 8 12 4 12 -15 0z"/>
<path d="M4027 2426 c-10 -8 -14 -16 -10 -19 5 -3 14 3 21 14 14 22 13 23 -11
5z"/>
<path d="M4050 2379 c0 -5 5 -7 10 -4 6 3 10 8 10 11 0 2 -4 4 -10 4 -5 0 -10
-5 -10 -11z"/>
<path d="M4117 2379 c7 -7 15 -10 18 -7 3 3 -2 9 -12 12 -14 6 -15 5 -6 -5z"/>
<path d="M3995 2350 c21 -24 26 -25 19 -6 -3 8 -13 17 -22 21 -13 5 -13 2 3
-15z"/>
<path d="M4067 2333 c-10 -9 -8 -33 2 -33 5 0 11 9 14 20 5 20 -3 26 -16 13z"/>
<path d="M3830 2310 c0 -5 5 -10 11 -10 5 0 7 5 4 10 -3 6 -8 10 -11 10 -2 0
-4 -4 -4 -10z"/>
<path d="M3953 2292 c-6 -4 -17 -20 -23 -36 -9 -26 -9 -27 5 -16 9 8 15 8 15
2 0 -6 -4 -14 -10 -17 -15 -9 -12 -35 4 -35 8 0 17 -6 20 -12 3 -7 3 -3 0 10
-3 12 -1 22 4 22 10 0 9 36 -1 46 -12 12 -8 36 5 28 7 -4 8 -3 4 4 -8 14 -8
14 -23 4z"/>
<path d="M3995 2160 c3 -5 8 -10 11 -10 2 0 4 5 4 10 0 6 -5 10 -11 10 -5 0
-7 -4 -4 -10z"/>
<path d="M2696 2031 c-23 -25 -58 -27 -81 -5 -11 12 -20 13 -27 6 -12 -12 44
-33 92 -34 37 -1 43 4 38 32 l-3 22 -19 -21z"/>
<path d="M3156 2015 c-4 -12 -1 -16 11 -13 18 3 21 20 5 26 -5 1 -12 -4 -16
-13z"/>
<path d="M3880 1950 c0 -5 5 -10 11 -10 5 0 7 5 4 10 -3 6 -8 10 -11 10 -2 0
-4 -4 -4 -10z"/>
<path d="M3840 1935 c-7 -9 -19 -14 -26 -11 -7 3 -16 0 -20 -6 -4 -6 -3 -8 4
-4 6 3 14 2 17 -4 4 -7 13 -4 24 9 10 11 22 17 26 13 5 -4 5 -1 1 6 -9 15 -11
15 -26 -3z"/>
<path d="M3265 1810 c-3 -5 -1 -10 4 -10 6 0 11 5 11 10 0 6 -2 10 -4 10 -3 0
-8 -4 -11 -10z"/>
<path d="M2660 1609 c0 -5 5 -7 10 -4 6 3 10 8 10 11 0 2 -4 4 -10 4 -5 0 -10
-5 -10 -11z"/>
<path d="M3596 1607 c3 -10 9 -15 12 -12 3 3 0 11 -7 18 -10 9 -11 8 -5 -6z"/>
<path d="M5395 3170 c3 -5 8 -10 11 -10 2 0 4 5 4 10 0 6 -5 10 -11 10 -5 0
-7 -4 -4 -10z"/>
<path d="M2060 2210 c0 -5 5 -10 11 -10 5 0 7 5 4 10 -3 6 -8 10 -11 10 -2 0
-4 -4 -4 -10z"/>
<path d="M4835 2100 c3 -5 8 -10 11 -10 2 0 4 5 4 10 0 6 -5 10 -11 10 -5 0
-7 -4 -4 -10z"/>
<path d="M3746 1112 c-3 -6 -1 -14 5 -17 15 -10 25 3 12 16 -7 7 -13 7 -17 1z"/>
<path d="M3596 1035 c4 -10 1 -14 -7 -12 -8 2 -11 2 -6 0 4 -3 5 -8 3 -12 -3
-4 6 -7 18 -7 27 0 30 19 5 34 -15 10 -17 9 -13 -3z"/>
<path d="M3455 950 c-3 -5 3 -10 15 -10 12 0 18 5 15 10 -3 6 -10 10 -15 10
-5 0 -12 -4 -15 -10z"/>
<path d="M3530 952 c0 -15 28 -23 36 -9 4 7 4 9 -1 5 -4 -4 -14 -3 -22 3 -8 7
-13 8 -13 1z"/>
<path d="M3271 833 c0 -10 3 -13 5 -6 3 7 12 9 21 6 11 -4 14 -2 9 5 -11 18
-36 14 -35 -5z"/>
<path d="M3340 820 c-9 -6 -10 -10 -3 -10 6 0 15 5 18 10 8 12 4 12 -15 0z"/>
<path d="M3296 805 c4 -8 11 -15 16 -15 6 0 5 6 -2 15 -7 8 -14 15 -16 15 -2
0 -1 -7 2 -15z"/>
<path d="M3680 773 c0 -11 7 -20 15 -20 8 0 15 4 15 7 0 4 -7 13 -15 20 -12
10 -15 9 -15 -7z"/>
<path d="M2840 530 c20 -13 33 -13 25 0 -3 6 -14 10 -23 10 -15 0 -15 -2 -2
-10z"/>
<path d="M2790 460 c0 -5 5 -10 11 -10 5 0 7 5 4 10 -3 6 -8 10 -11 10 -2 0
-4 -4 -4 -10z"/>
<path d="M3992 331 c-10 -6 -10 -10 1 -20 12 -9 16 -8 20 3 7 19 -4 27 -21 17z"/>
<path d="M5945 3873 c3 -8 5 -18 5 -21 0 -8 20 20 20 29 0 3 -7 6 -15 6 -10 0
-14 -6 -10 -14z"/>
<path d="M5975 3860 c-3 -5 -1 -10 4 -10 6 0 11 5 11 10 0 6 -2 10 -4 10 -3 0
-8 -4 -11 -10z"/>
<path d="M5793 3781 c-3 -11 -8 -19 -12 -17 -3 2 -12 -2 -19 -10 -10 -12 -10
-14 2 -14 8 0 18 5 21 10 8 13 25 13 25 -1 0 -5 -4 -7 -10 -4 -5 3 -10 1 -10
-4 0 -6 4 -11 9 -11 17 0 23 20 11 34 -8 11 -8 15 2 18 9 3 9 6 -1 12 -8 5
-14 1 -18 -13z"/>
<path d="M5880 3670 c0 -5 5 -10 11 -10 5 0 7 5 4 10 -3 6 -8 10 -11 10 -2 0
-4 -4 -4 -10z"/>
<path d="M5914 3668 c3 -15 26 -23 26 -8 0 6 -4 9 -9 6 -5 -4 -12 -1 -14 4 -3
6 -4 5 -3 -2z"/>
<path d="M5789 3645 c-5 -27 -1 -59 9 -61 7 -1 9 -1 4 2 -4 2 -7 18 -6 34 1
17 0 30 -2 30 -2 0 -4 -2 -5 -5z"/>
<path d="M5705 3620 c3 -5 11 -10 16 -10 6 0 7 5 4 10 -3 6 -11 10 -16 10 -6
0 -7 -4 -4 -10z"/>
<path d="M5720 3591 c0 -9 38 -12 44 -3 2 4 -7 8 -20 8 -13 1 -24 -1 -24 -5z"/>
<path d="M5745 3545 c-16 -8 -41 -15 -55 -16 l-25 -1 25 -8 25 -8 -26 -1 c-29
-1 -45 -24 -26 -38 14 -11 27 -11 43 -1 19 12 94 19 94 8 0 -6 4 -10 8 -10 5
0 9 7 9 15 0 19 -28 29 -39 13 -6 -10 -8 -8 -8 5 0 9 -4 17 -10 17 -5 0 -10 5
-10 10 0 6 7 10 15 10 8 0 15 5 15 10 0 6 -1 10 -2 9 -2 0 -16 -7 -33 -14z m3
-32 c16 -16 16 -16 0 -10 -10 3 -20 2 -23 -3 -4 -6 -15 -10 -26 -10 -10 0 -19
-5 -19 -11 0 -5 -5 -7 -12 -3 -8 5 -1 12 20 21 18 7 32 18 32 23 0 15 9 12 28
-7z"/>
<path d="M5770 3448 c0 -9 5 -20 10 -23 13 -8 13 5 0 25 -8 13 -10 13 -10 -2z"/>
<path d="M5715 3440 c-3 -5 -1 -10 4 -10 6 0 11 5 11 10 0 6 -2 10 -4 10 -3 0
-8 -4 -11 -10z"/>
<path d="M5593 3426 c7 -17 -16 -39 -28 -28 -5 4 -5 1 -1 -6 4 -7 2 -20 -5
-28 -6 -8 -10 -17 -7 -19 5 -5 68 78 68 89 0 3 -7 6 -16 6 -10 0 -14 -6 -11
-14z"/>
<path d="M5634 3417 c10 -30 -4 -67 -25 -67 -10 0 -19 -5 -19 -11 0 -5 4 -8 9
-4 5 3 13 1 16 -5 4 -6 3 -10 -2 -9 -20 3 -34 -2 -28 -11 4 -6 11 -8 16 -4 11
7 39 -13 39 -28 0 -6 -7 -5 -15 2 -13 11 -14 10 -9 -4 3 -9 10 -16 15 -16 15
0 24 33 10 38 -9 3 -7 10 6 25 17 20 17 20 0 14 -15 -6 -17 -3 -11 16 3 12 10
27 15 33 5 6 2 18 -7 30 -14 18 -15 18 -10 1z"/>
<path d="M5746 3278 c3 -5 10 -6 15 -3 13 9 11 12 -6 12 -8 0 -12 -4 -9 -9z"/>
<path d="M5540 3220 c10 -6 11 -10 3 -10 -7 0 -13 -4 -13 -8 0 -5 7 -9 15 -9
8 0 12 4 9 9 -3 4 1 8 8 8 9 0 9 3 -2 10 -8 5 -19 10 -25 10 -5 0 -3 -5 5 -10z"/>
<path d="M5438 3138 c5 -5 16 -8 23 -6 8 3 3 7 -10 11 -17 4 -21 3 -13 -5z"/>
<path d="M5383 3093 c-7 -3 -13 -9 -13 -15 0 -6 8 -7 17 -3 15 5 15 3 -2 -13
-11 -11 -24 -17 -29 -14 -4 2 -3 8 4 12 9 6 6 11 -10 20 -29 15 -38 5 -16 -19
10 -11 15 -25 11 -31 -4 -6 -1 -18 6 -26 10 -13 14 -13 30 1 15 15 18 15 26 1
7 -13 10 -13 21 4 11 18 10 20 -12 20 -14 0 -32 -7 -40 -16 -24 -24 -19 -5 8
31 24 31 23 56 -1 48z"/>
<path d="M660 3032 c-13 -14 -12 -15 2 -10 10 4 19 1 22 -8 3 -8 2 -13 -3 -10
-10 7 -22 -17 -27 -53 -3 -21 -2 -22 15 -7 23 21 28 20 41 -4 7 -14 8 -26 1
-38 -10 -16 -10 -16 -11 1 0 9 -4 17 -10 17 -14 0 -13 -13 3 -34 13 -17 14
-16 26 13 8 17 19 31 25 31 6 1 2 6 -9 13 -20 12 -27 27 -29 57 0 9 -7 23 -16
32 -14 15 -16 15 -30 0z"/>
<path d="M5363 2968 c-11 -19 -12 -38 -2 -38 5 0 9 5 9 11 0 5 4 8 8 5 4 -2
14 -1 22 5 12 7 10 9 -8 9 -13 0 -20 4 -17 10 3 6 4 10 1 10 -3 0 -8 -6 -13
-12z"/>
<path d="M770 2951 c0 -5 7 -12 16 -15 24 -9 27 -7 10 9 -17 17 -26 19 -26 6z"/>
<path d="M441 2904 c0 -11 3 -14 6 -6 3 7 2 16 -1 19 -3 4 -6 -2 -5 -13z"/>
<path d="M870 2895 c-7 -9 -8 -15 -2 -15 5 0 12 7 16 15 3 8 4 15 2 15 -2 0
-9 -7 -16 -15z"/>
<path d="M943 2880 c1 -11 3 -17 5 -15 3 2 13 0 24 -6 17 -9 18 -8 9 9 -6 11
-8 21 -6 24 2 2 -4 4 -15 5 -13 1 -18 -4 -17 -17z"/>
<path d="M420 2880 c0 -5 5 -10 11 -10 5 0 7 5 4 10 -3 6 -8 10 -11 10 -2 0
-4 -4 -4 -10z"/>
<path d="M546 2875 c-5 -15 2 -45 11 -45 2 0 12 7 21 16 15 15 14 16 -6 10
-12 -4 -22 -3 -22 2 0 6 5 12 12 14 8 3 9 6 1 11 -6 4 -13 0 -17 -8z"/>
<path d="M915 2871 c-3 -5 -2 -12 3 -15 5 -3 9 1 9 9 0 17 -3 19 -12 6z"/>
<path d="M380 2862 c0 -5 7 -9 15 -9 8 0 15 4 15 9 0 4 -7 8 -15 8 -8 0 -15
-4 -15 -8z"/>
<path d="M5279 2857 c-9 -7 -16 -20 -16 -29 0 -10 3 -16 5 -13 3 3 12 -1 21
-7 13 -10 14 -10 4 2 -15 16 -17 34 -4 25 6 -3 9 4 8 15 -1 11 -1 20 -2 20 0
0 -7 -6 -16 -13z"/>
<path d="M5310 2848 c0 -19 2 -20 10 -8 9 13 11 13 21 0 9 -13 10 -12 5 3 -3
10 -6 21 -6 23 0 2 -7 4 -15 4 -9 0 -15 -9 -15 -22z"/>
<path d="M585 2830 c-4 -6 3 -10 14 -10 25 0 27 6 6 13 -8 4 -17 2 -20 -3z"/>
<path d="M0 2820 c0 -5 5 -10 11 -10 5 0 7 5 4 10 -3 6 -8 10 -11 10 -2 0 -4
-4 -4 -10z"/>
<path d="M1090 2821 c0 -5 5 -13 10 -16 6 -3 10 -2 10 4 0 5 -4 13 -10 16 -5
3 -10 2 -10 -4z"/>
<path d="M40 2810 c-8 -5 -10 -10 -5 -10 6 0 17 5 25 10 8 5 11 10 5 10 -5 0
-17 -5 -25 -10z"/>
<path d="M330 2806 c0 -20 13 -27 30 -14 12 8 11 9 -4 4 -13 -5 -17 -2 -12 9
3 8 1 15 -4 15 -6 0 -10 -6 -10 -14z"/>
<path d="M370 2816 c0 -2 7 -7 16 -10 8 -3 12 -2 9 4 -6 10 -25 14 -25 6z"/>
<path d="M585 2799 c-4 -6 -5 -12 -2 -15 2 -3 7 2 10 11 7 17 1 20 -8 4z"/>
<path d="M1307 2768 c4 -7 6 -21 5 -31 -3 -16 -1 -16 17 -5 17 10 18 14 6 21
-9 4 -13 12 -10 18 4 5 -1 9 -10 9 -10 0 -13 -4 -8 -12z"/>
<path d="M270 2766 c0 -2 8 -10 18 -17 15 -13 16 -12 3 4 -13 16 -21 21 -21
13z"/>
<path d="M300 2764 c0 -9 40 -23 44 -15 3 5 -5 11 -19 13 -14 3 -25 4 -25 2z"/>
<path d="M253 2715 c0 -8 7 -15 15 -15 12 0 12 3 2 15 -7 8 -13 15 -15 15 -1
0 -2 -7 -2 -15z"/>
<path d="M5338 2683 c7 -3 16 -2 19 1 4 3 -2 6 -13 5 -11 0 -14 -3 -6 -6z"/>
<path d="M5154 2629 c-3 -6 -1 -16 6 -22 10 -9 11 -9 5 2 -4 8 -2 17 6 22 9 6
10 9 2 9 -6 0 -15 -5 -19 -11z"/>
<path d="M5124 2609 c15 -9 16 -13 5 -21 -11 -7 -9 -8 5 -4 14 5 17 3 12 -11
-5 -14 -4 -15 4 -7 15 15 -8 54 -30 54 -11 -1 -10 -3 4 -11z"/>
<path d="M5248 2603 c7 -3 16 -2 19 1 4 3 -2 6 -13 5 -11 0 -14 -3 -6 -6z"/>
<path d="M5097 2550 c-3 -11 -1 -23 4 -26 5 -3 9 -2 10 3 0 4 2 16 4 26 5 24
-11 22 -18 -3z"/>
<path d="M5115 2490 c2 -11 0 -20 -6 -20 -5 0 -9 7 -9 16 0 14 -3 14 -15 4
-14 -11 -13 -14 7 -25 13 -6 24 -11 26 -10 8 6 10 45 2 50 -5 3 -7 -4 -5 -15z"/>
<path d="M5077 2414 c3 -8 -1 -14 -8 -14 -22 0 12 -20 34 -20 14 0 16 4 8 19
-13 23 -43 37 -34 15z"/>
<path d="M5030 2371 c0 -18 18 -21 30 -6 10 13 9 15 -9 15 -11 0 -21 -4 -21
-9z"/>
<path d="M5090 2299 c0 -5 -4 -8 -8 -5 -5 3 -9 -2 -9 -10 0 -10 4 -11 11 -4
14 14 29 13 20 -2 -4 -7 -3 -8 5 -4 9 6 9 11 0 22 -14 17 -19 18 -19 3z"/>
<path d="M5168 2303 c7 -3 16 -2 19 1 4 3 -2 6 -13 5 -11 0 -14 -3 -6 -6z"/>
<path d="M4958 2255 c-6 -7 2 -54 11 -59 7 -5 7 52 -1 59 -2 3 -7 3 -10 0z"/>
<path d="M5051 2174 c0 -11 3 -14 6 -6 3 7 2 16 -1 19 -3 4 -6 -2 -5 -13z"/>
<path d="M4880 2091 c0 -6 5 -13 12 -17 6 -4 8 -3 4 4 -3 5 0 13 6 15 8 3 6 6
-4 6 -10 1 -18 -3 -18 -8z"/>
<path d="M4910 2060 c-11 -8 -7 -9 15 -4 37 8 45 14 19 14 -10 0 -26 -5 -34
-10z"/>
<path d="M4743 1898 c1 -17 -3 -22 -15 -20 -10 2 -18 -2 -18 -8 0 -6 -7 -4
-16 5 -11 10 -20 13 -26 7 -7 -7 -3 -17 11 -31 18 -18 22 -18 35 -6 24 24 27
17 11 -22 -8 -20 -13 -38 -11 -40 2 -3 10 12 17 31 7 20 19 36 26 36 7 0 13 5
13 11 0 5 -5 7 -10 4 -7 -4 -9 2 -5 18 4 14 2 28 -4 31 -7 5 -10 -1 -8 -16z"/>
<path d="M4771 1903 c-2 -23 19 -64 29 -58 5 3 10 12 9 18 0 7 -3 5 -6 -3 -4
-10 -10 -4 -19 20 -7 19 -13 30 -13 23z"/>
<path d="M4756 1823 c5 -5 12 -12 16 -18 4 -6 8 -2 8 8 0 9 -7 17 -17 17 -9 0
-12 -3 -7 -7z"/>
<path d="M4751 1774 c0 -11 3 -14 6 -6 3 7 2 16 -1 19 -3 4 -6 -2 -5 -13z"/>
<path d="M4725 1771 c-3 -6 -10 -9 -15 -6 -4 3 -10 -2 -14 -10 -3 -8 -1 -15 5
-15 14 0 43 29 36 36 -3 3 -8 0 -12 -5z"/>
<path d="M4823 1685 c0 -8 4 -15 9 -15 4 0 8 4 8 9 0 6 -4 12 -8 15 -5 3 -9
-1 -9 -9z"/>
<path d="M580 370 c-13 -9 -13 -11 0 -20 22 -14 34 -12 21 3 -6 8 -8 17 -4 20
9 10 0 8 -17 -3z"/>
<path d="M397 357 c-3 -8 3 -14 15 -14 16 -2 17 1 8 13 -15 17 -17 17 -23 1z"/>
<path d="M480 329 c0 -12 5 -19 13 -16 6 2 11 10 10 16 -3 12 18 11 28 -2 3
-4 11 -2 17 5 8 10 2 14 -29 16 -34 2 -39 0 -39 -19z"/>
<path d="M340 323 c0 -16 2 -16 11 -3 8 11 9 8 4 -13 -4 -21 -3 -27 6 -21 9 5
10 2 6 -9 -3 -10 -2 -17 3 -17 6 0 10 -7 10 -16 0 -13 -3 -14 -14 -5 -11 9
-16 9 -22 0 -4 -7 -3 -9 4 -5 6 3 13 2 17 -3 3 -6 13 -7 22 -4 13 5 15 2 10
-11 -5 -14 -3 -16 13 -12 11 3 30 9 41 12 16 5 20 3 13 -7 -6 -11 -5 -12 7 -2
9 7 14 26 13 43 -2 33 -14 55 -14 27 0 -9 -7 -17 -16 -17 -8 0 -12 5 -9 10 10
17 -12 11 -26 -7 -8 -9 -9 -14 -2 -10 7 5 9 0 6 -13 -7 -28 -33 -7 -33 26 0
23 9 29 39 25 7 -2 10 3 6 9 -4 6 -12 9 -18 7 -6 -2 -19 5 -29 15 -23 23 -48
23 -48 1z"/>
<path d="M160 240 c0 -5 5 -10 11 -10 5 0 7 5 4 10 -3 6 -8 10 -11 10 -2 0 -4
-4 -4 -10z"/>
<path d="M191 211 c-12 -12 -21 -25 -21 -29 0 -16 13 -22 26 -12 6 6 16 10 20
9 5 -1 15 -1 23 0 11 1 11 4 0 18 -8 9 -13 19 -11 22 9 16 -19 10 -37 -8z m34
-1 c-3 -5 -11 -10 -16 -10 -6 0 -7 5 -4 10 3 6 11 10 16 10 6 0 7 -4 4 -10z"/>
<path d="M600 200 c0 -5 5 -10 11 -10 5 0 7 5 4 10 -3 6 -8 10 -11 10 -2 0 -4
-4 -4 -10z"/>
<path d="M310 189 c0 -14 28 -30 35 -19 9 15 19 12 33 -10 8 -14 9 -19 1 -18
-6 2 -14 -4 -16 -12 -3 -10 -2 -11 4 -4 4 6 17 10 29 9 20 -1 20 0 5 26 -12
21 -25 28 -53 31 -21 2 -38 1 -38 -3z"/>
<path d="M108 183 c7 -3 16 -2 19 1 4 3 -2 6 -13 5 -11 0 -14 -3 -6 -6z"/>
<path d="M706 172 c-9 -15 10 -33 28 -26 13 5 14 9 5 20 -13 16 -25 18 -33 6z"/>
<path d="M196 155 c-3 -8 -1 -15 4 -15 13 0 22 18 11 24 -5 3 -11 -1 -15 -9z"/>
<path d="M10 151 c0 -11 26 -22 34 -14 3 3 3 10 0 14 -7 12 -34 11 -34 0z"/>
<path d="M225 110 c3 -5 8 -10 11 -10 2 0 4 5 4 10 0 6 -5 10 -11 10 -5 0 -7
-4 -4 -10z"/>
<path d="M180 100 c-13 -8 -12 -10 3 -10 9 0 17 5 17 10 0 12 -1 12 -20 0z"/>
<path d="M370 79 c-19 -11 -28 -19 -20 -19 13 0 13 -1 0 -10 -12 -8 -12 -10
-1 -10 7 0 22 10 32 22 16 18 19 19 19 4 0 -9 5 -14 10 -11 8 5 8 11 0 20 -8
10 -7 14 2 18 7 3 9 5 3 5 -5 0 -26 -9 -45 -19z"/>
<path d="M120 70 c5 -10 7 -20 2 -23 -4 -2 0 -2 8 1 8 2 21 5 27 5 18 1 -3 24
-27 30 -16 4 -18 2 -10 -13z"/>
<path d="M258 72 c-6 -7 -8 -15 -5 -18 10 -10 64 6 64 19 0 16 -46 15 -59 -1z"/>
<path d="M76 57 c3 -10 9 -15 12 -12 3 3 0 11 -7 18 -10 9 -11 8 -5 -6z"/>
<path d="M0 40 c0 -13 5 -18 14 -14 8 3 12 12 9 20 -8 21 -23 17 -23 -6z"/>
<path d="M700 53 c0 -4 5 -15 10 -23 7 -11 10 -11 10 -2 0 7 5 10 10 7 6 -3
10 -4 10 -1 0 3 -9 10 -20 16 -11 6 -20 7 -20 3z"/>
<path d="M320 41 c0 -6 4 -13 10 -16 6 -3 7 1 4 9 -7 18 -14 21 -14 7z"/>
<path d="M150 30 c0 -5 7 -10 15 -10 8 0 15 5 15 10 0 6 -7 10 -15 10 -8 0
-15 -4 -15 -10z"/>
<path d="M361 31 c-11 -7 -9 -11 9 -21 25 -13 35 -8 27 15 -7 17 -16 19 -36 6z"/>
<path d="M637 21 c-4 -17 -3 -21 5 -13 5 5 8 16 6 23 -3 8 -7 3 -11 -10z"/>
<path d="M590 10 c0 -6 7 -10 15 -10 8 0 15 2 15 4 0 2 -7 6 -15 10 -8 3 -15
1 -15 -4z"/>
</g>
</svg>
